<svg width="354.24" height="315.8" xmlns="http://www.w3.org/2000/svg" data-name="Layer 1">

 <g>
  <title>Layer 1</title>
  <path id="svg_1" stroke-width="0px" fill="#00182d" d="m11.58,438.45c5.02,0 9.1,-4.02 9.1,-8.97l0,-64.19l26.59,65.71c1.99,4.52 6.45,7.45 11.36,7.45s9.37,-2.92 11.39,-7.52l26.55,-65.64l0,64.19c0,4.94 4.08,8.97 9.11,8.97s8.97,-4.02 8.97,-8.97l0,-82.37c0,-6.54 -5.26,-11.87 -11.73,-11.87l-4.55,0c-4.57,0 -8.86,2.91 -10.98,7.53l-28.76,71.7l-28.81,-71.83c-2.06,-4.5 -6.35,-7.41 -10.93,-7.41l-4.55,0c-6.47,0 -11.73,5.32 -11.73,11.87l0,82.37c0,4.94 4.02,8.97 8.97,8.97l0,0.01z" class="cls-1"/>
  <path id="svg_2" stroke-width="0px" fill="#00182d" d="m181.28,334.56c-30.02,0 -50.59,20.99 -51.19,52.34c0.6,31.24 21.17,52.24 51.19,52.24s50.59,-20.99 51.19,-52.34c-0.6,-31.24 -21.17,-52.24 -51.19,-52.24zm0,87.34c-19.81,0 -33.11,-14.08 -33.11,-35.05s13.31,-35.05 33.11,-35.05s33.11,14.08 33.11,35.05s-13.31,35.05 -33.11,35.05z" class="cls-1"/>
  <path id="svg_3" stroke-width="0px" fill="#00182d" d="m293.16,334.56c-30.02,0 -50.59,20.99 -51.19,52.34c0.6,31.24 21.17,52.24 51.19,52.24s50.59,-20.99 51.19,-52.34c-0.6,-31.24 -21.17,-52.24 -51.19,-52.24zm0,87.34c-19.81,0 -33.11,-14.08 -33.11,-35.05s13.31,-35.05 33.11,-35.05s33.11,14.08 33.11,35.05s-13.31,35.05 -33.11,35.05z" class="cls-1"/>
  <path id="svg_4" stroke-width="0px" fill="#00182d" d="m412.82,383.87c-4.2,-1.7 -9.72,-3.35 -17.91,-5.36c-11.15,-2.62 -16.44,-4.27 -20.2,-7.68c-1.57,-1.57 -2.36,-3.65 -2.36,-6.19c0,-7.88 8.56,-12.97 21.8,-12.97c7.29,0 14.46,1.2 21.13,3.51c1.24,0.53 2.28,0.77 3.29,0.77c4.56,0 8.28,-3.84 8.28,-8.56c0,-3.94 -1.96,-6.74 -5.66,-8.1c-8.41,-3.14 -17.97,-4.73 -28.42,-4.73c-23.02,0 -38.49,12.48 -38.49,31.04c0,11.49 6.42,20.15 18.58,25.06c4.32,1.7 10.16,3.49 18.39,5.62c10.6,2.75 15.85,4.21 19.44,7.56c1.5,1.3 2.22,2.87 2.22,4.81c0,5.63 -2.22,13.11 -21.39,13.11c-9.17,0 -17.94,-1.82 -25.95,-5.37c-1.15,-0.58 -2.38,-0.84 -3.85,-0.84c-4.72,0 -8.42,3.76 -8.42,8.56c0,3.4 2.27,6.76 5.53,8.19c10.51,4.55 21.92,6.85 33.93,6.85c22.42,0 38.08,-12.2 38.08,-29.66c0,-12.03 -6.4,-21.12 -18.03,-25.61l0.01,-0.01z" class="cls-1"/>
  <path id="svg_5" stroke-width="0px" fill="#00182d" d="m508.93,420.52l-46.22,0l0,-25.11l41.25,0c4.87,0 8.69,-3.76 8.69,-8.56s-3.82,-8.69 -8.69,-8.69l-41.25,0l0,-24.97l46.22,0c4.87,0 8.69,-3.76 8.69,-8.55s-3.82,-8.69 -8.69,-8.69l-55.33,0c-4.95,0 -8.97,4.08 -8.97,9.11l0,83.75c0,4.94 4.02,8.97 8.97,8.97l55.33,0c4.87,0 8.69,-3.76 8.69,-8.56s-3.82,-8.69 -8.69,-8.69l0,-0.01z" class="cls-1"/>
  <path id="svg_6" stroke-width="0px" fill="#00182d" d="m34.51,115.37l11.71,9.13l11.34,8.85c0.9,0.71 1.94,1.1 3.01,1.27c0,0 -0.02,0.02 -0.02,0.03l0.39,0.03c0.13,0.01 0.25,0.02 0.38,0.03l15.8,1.08c3.59,0.22 6.7,-2.54 6.92,-6.13c0.22,-3.59 -2.54,-6.7 -6.13,-6.92l-13.78,-0.84l-0.05,-0.04l-20.07,-15.65c-0.05,-0.12 -0.07,-0.25 -0.12,-0.37l-11.84,-26.73c-0.09,-0.21 -0.22,-0.38 -0.33,-0.57c2.19,-2.59 3.56,-5.89 3.56,-9.53c0,-8.19 -6.66,-14.86 -14.86,-14.86s-14.86,6.66 -14.86,14.86s6.39,14.52 14.33,14.8c0.07,0.2 0.11,0.4 0.2,0.6l11.84,26.73c0.06,0.14 0.15,0.25 0.22,0.38c0.3,1.48 1.08,2.86 2.35,3.86l0.01,-0.01zm-14.08,-40.02c-3.5,0 -6.35,-2.85 -6.35,-6.35s2.85,-6.35 6.35,-6.35s6.35,2.85 6.35,6.35s-2.85,6.35 -6.35,6.35z" class="cls-1"/>
  <path id="svg_7" stroke-width="0px" fill="#00182d" d="m69.38,51.29c0.74,0.74 1.55,1.35 2.39,1.89c2.1,1.35 4.46,2.13 6.87,2.33c0.06,0.21 0.09,0.43 0.17,0.64l9.82,25.43l-1.2,7.1c-0.57,3.55 1.86,6.92 5.41,7.5s6.92,-1.86 7.5,-5.41l1.38,-7.97c0.11,-0.4 0.18,-0.81 0.21,-1.22l0,0s0,0 0,0c0.06,-0.8 -0.02,-1.62 -0.27,-2.43c-0.04,-0.14 -0.06,-0.29 -0.12,-0.43l-1,-2.58l-9.53,-24.69c-0.08,-0.2 -0.19,-0.37 -0.29,-0.56c5.42,-5.82 5.33,-14.94 -0.33,-20.6c-5.79,-5.79 -15.22,-5.79 -21.01,0c-5.25,5.25 -5.69,13.46 -1.42,19.27c0.44,0.6 0.88,1.2 1.42,1.74l0,-0.01zm6.01,-15c2.48,-2.48 6.51,-2.48 8.98,0c2.48,2.48 2.48,6.51 0,8.98c-1.16,1.16 -2.66,1.75 -4.18,1.83c-1.73,0.09 -3.49,-0.51 -4.81,-1.83c-1.21,-1.21 -1.82,-2.8 -1.85,-4.39c-0.03,-1.66 0.58,-3.33 1.85,-4.6l0.01,0.01z" class="cls-1"/>
  <path id="svg_8" stroke-width="0px" fill="#00182d" d="m128.66,73c0.02,0.06 0.02,0.12 0.04,0.19l17.74,53.53l-1.43,13.36c-0.57,3.55 1.86,6.92 5.41,7.5s6.92,-1.86 7.5,-5.41l2.71,-16.5s-0.02,0 -0.04,0.01c0.21,-1.16 0.17,-2.38 -0.22,-3.57l-17.74,-53.53c-0.18,-0.55 -0.44,-1.05 -0.73,-1.52c1.83,-2.46 2.99,-5.44 2.99,-8.73c0,-8.19 -6.66,-14.86 -14.86,-14.86s-14.86,6.66 -14.86,14.86c0,7.72 5.94,13.98 13.48,14.69l0.01,-0.02zm1.38,-21.04c3.5,0 6.35,2.85 6.35,6.35s-2.85,6.35 -6.35,6.35s-6.35,-2.85 -6.35,-6.35s2.85,-6.35 6.35,-6.35z" class="cls-1"/>
  <path id="svg_9" stroke-width="0px" fill="#00182d" d="m318.95,68.71c0,3.65 1.37,6.94 3.56,9.53c-0.11,0.19 -0.24,0.37 -0.33,0.57l-11.84,26.73c-0.05,0.12 -0.07,0.25 -0.12,0.37l-20.07,15.65l-0.05,0.04l-13.78,0.84c-3.59,0.22 -6.35,3.33 -6.13,6.92c0.22,3.59 3.33,6.35 6.92,6.13l15.8,-1.08c0.13,0 0.26,-0.01 0.38,-0.03l0.39,-0.03s-0.01,-0.02 -0.02,-0.03c1.06,-0.16 2.1,-0.56 3.01,-1.27l11.34,-8.85l11.71,-9.13c1.27,-0.99 2.05,-2.38 2.35,-3.86c0.07,-0.13 0.16,-0.25 0.22,-0.38l11.84,-26.73c0.09,-0.2 0.13,-0.4 0.2,-0.6c7.94,-0.28 14.33,-6.79 14.33,-14.8s-6.66,-14.86 -14.86,-14.86s-14.86,6.66 -14.86,14.86l0.01,0.01zm21.21,0c0,3.5 -2.85,6.35 -6.35,6.35s-6.35,-2.85 -6.35,-6.35s2.85,-6.35 6.35,-6.35s6.35,2.85 6.35,6.35z" class="cls-1"/>
  <path id="svg_10" stroke-width="0px" fill="#00182d" d="m252.31,81.28l0,0c0.03,0.42 0.1,0.83 0.21,1.23l1.38,7.97c0.57,3.55 3.95,5.98 7.5,5.41s5.98,-3.95 5.41,-7.5l-1.21,-7.1l9.82,-25.43c0.08,-0.21 0.12,-0.42 0.17,-0.64c2.41,-0.2 4.77,-0.98 6.87,-2.33c0.84,-0.54 1.65,-1.15 2.39,-1.89c0.54,-0.54 0.98,-1.14 1.42,-1.74c4.27,-5.81 3.83,-14.02 -1.42,-19.27c-5.79,-5.79 -15.22,-5.79 -21.01,0c-5.67,5.67 -5.75,14.78 -0.33,20.6c-0.09,0.19 -0.21,0.36 -0.28,0.56l-9.53,24.69l0,0s-1,2.58 -1,2.58c-0.05,0.14 -0.07,0.28 -0.12,0.43c-0.25,0.8 -0.33,1.63 -0.27,2.43c0,0 0,0 0,0zm17.55,-45.27c2.48,-2.48 6.51,-2.48 8.98,0c1.26,1.26 1.87,2.93 1.85,4.6c-0.03,1.59 -0.64,3.18 -1.85,4.39c-1.32,1.32 -3.08,1.91 -4.81,1.83c-1.52,-0.08 -3.02,-0.67 -4.18,-1.83c-2.48,-2.48 -2.48,-6.51 0,-8.98l0.01,-0.01z" class="cls-1"/>
  <path id="svg_11" stroke-width="0px" fill="#00182d" d="m193.6,125.38l2.71,16.5c0.57,3.55 3.95,5.98 7.5,5.41c3.55,-0.57 5.98,-3.95 5.41,-7.5l-1.43,-13.36l17.74,-53.53c0.02,-0.06 0.02,-0.12 0.04,-0.19c7.53,-0.71 13.48,-6.97 13.48,-14.69c0,-8.19 -6.66,-14.86 -14.86,-14.86s-14.86,6.66 -14.86,14.86c0,3.29 1.16,6.27 2.99,8.73c-0.29,0.47 -0.55,0.97 -0.73,1.52l-17.74,53.53c-0.4,1.19 -0.43,2.41 -0.22,3.57c-0.01,0 -0.02,0 -0.04,-0.01l0.01,0.02zm30.6,-73.71c3.5,0 6.35,2.85 6.35,6.35s-2.85,6.35 -6.35,6.35s-6.35,-2.85 -6.35,-6.35s2.85,-6.35 6.35,-6.35z" class="cls-1"/>
  <path id="svg_12" stroke-width="0px" fill="#00182d" d="m28.64,35.67c0.1,0.59 0.24,1.17 0.49,1.74l27.34,62.42c0.88,2.01 2.57,3.4 4.52,4.02c0.1,0.06 0.19,0.13 0.3,0.19l59.52,29.4l28.23,58.34c0.9,1.87 2.52,3.17 4.36,3.77c0.11,0.07 0.21,0.14 0.33,0.19l15.75,6.98l0,84.16l-0.13,-0.18c-0.12,-0.33 -0.27,-0.66 -0.49,-0.96l-4.42,-6.88l-4.96,-33.95s-0.02,-0.07 -0.03,-0.11c3.9,-2.44 5.43,-7.47 3.32,-11.67c-2.24,-4.45 -7.68,-6.26 -12.13,-4.02c-4.45,2.24 -6.26,7.68 -4.03,12.13c0.9,1.79 2.34,3.1 4.01,3.93c-0.03,0.34 -0.03,0.68 0.02,1.03l4.96,33.95c0.11,0.76 0.42,1.43 0.85,2c0,0 -0.01,0 -0.02,0l5.98,8.23s0.04,0.04 0.06,0.06l10.46,15.05c0.37,0.53 0.87,0.9 1.41,1.18c0.09,0.07 0.13,0.18 0.22,0.25c1.73,1.26 4.18,0.88 5.45,-0.85l11.23,-15.37c0.1,-0.11 0.2,-0.2 0.29,-0.32l6,-8.22s-0.01,0 -0.02,0c0.43,-0.57 0.75,-1.25 0.86,-2l5.04,-33.94c0.05,-0.35 0.05,-0.69 0.02,-1.03c1.67,-0.83 3.11,-2.14 4.02,-3.93c2.24,-4.45 0.45,-9.9 -4,-12.14c-4.45,-2.25 -9.9,-0.45 -12.14,4c-2.11,4.19 -0.6,9.22 3.3,11.67c0,0.04 -0.02,0.07 -0.03,0.11l-5.04,33.94l-4.44,6.87c-0.18,0.25 -0.32,0.52 -0.44,0.79l-0.15,0.2l0,-84.18l15.99,-7.08c0.12,-0.05 0.22,-0.12 0.33,-0.19c1.84,-0.6 3.45,-1.9 4.36,-3.77l28.23,-58.34l59.52,-29.4c0.11,-0.05 0.19,-0.13 0.3,-0.19c1.95,-0.62 3.64,-2.01 4.52,-4.02l27.34,-62.42c0.25,-0.57 0.39,-1.15 0.49,-1.74c7.58,-0.67 13.56,-6.95 13.56,-14.7c0,-8.19 -6.66,-14.86 -14.86,-14.86s-14.86,6.66 -14.86,14.86c0,3.41 1.23,6.49 3.17,8.99c-0.37,0.47 -0.71,0.98 -0.96,1.55l-26.21,59.84l-60.1,29.69c-0.91,0.45 -1.68,1.06 -2.3,1.79c-0.82,0.66 -1.52,1.48 -2,2.49l-28.95,59.84l-15.3,6.78l-14.64,-6.48l-28.95,-59.84c-0.49,-1 -1.19,-1.83 -2,-2.49c-0.62,-0.72 -1.4,-1.34 -2.3,-1.79l-60.1,-29.69l-26.21,-59.84c-0.25,-0.57 -0.59,-1.08 -0.96,-1.55c1.94,-2.5 3.17,-5.58 3.17,-8.99c0,-8.19 -6.66,-14.86 -14.86,-14.86s-14.86,6.66 -14.86,14.86c0,7.75 5.99,14.03 13.56,14.7l0.01,0zm127.79,204.96c-1.9,0.96 -4.23,0.18 -5.19,-1.72c-0.96,-1.91 -0.18,-4.23 1.72,-5.19c1.9,-0.96 4.23,-0.18 5.19,1.72c0.96,1.9 0.18,4.23 -1.72,5.19zm39.49,-5.18c0.96,-1.9 3.29,-2.67 5.19,-1.71c1.9,0.96 2.67,3.29 1.71,5.19c-0.96,1.9 -3.29,2.67 -5.19,1.71c-1.9,-0.96 -2.67,-3.29 -1.71,-5.19zm128.38,-221.13c3.5,0 6.35,2.85 6.35,6.35s-2.85,6.35 -6.35,6.35s-6.35,-2.85 -6.35,-6.35s2.85,-6.35 6.35,-6.35zm-294.37,0.29c3.5,0 6.35,2.85 6.35,6.35s-2.85,6.35 -6.35,6.35s-6.35,-2.85 -6.35,-6.35s2.85,-6.35 6.35,-6.35z" class="cls-1"/>
  <path id="svg_13" stroke-width="0px" fill="#00182d" d="m238.76,202.19c1.05,3.42 4.71,5.35 8.12,4.3l24.5,-7.54c3.09,-0.95 4.94,-4.04 4.49,-7.15c-0.13,-2.2 -1.34,-4.29 -3.42,-5.39l-31.28,-16.55c-2.45,-1.3 -5.36,-0.84 -7.33,0.89c-0.89,0.58 -1.67,1.36 -2.2,2.36l-15.19,28.72l-15.46,2.01c-3.54,0.46 -6.07,3.74 -5.61,7.28c0.46,3.54 3.74,6.07 7.28,5.61l18.33,-2.38c1.19,-0.15 2.24,-0.64 3.12,-1.33c1.01,-0.59 1.89,-1.44 2.47,-2.55l13.9,-26.27l12.73,6.73l-10.16,3.13c-3.42,1.05 -5.35,4.71 -4.3,8.12l0.01,0.01z" class="cls-1"/>
  <path id="svg_14" stroke-width="0px" fill="#00182d" d="m130.47,210.48c0.59,1.11 1.46,1.96 2.47,2.55c0.88,0.69 1.94,1.18 3.12,1.33l18.33,2.38c3.54,0.46 6.82,-2.06 7.28,-5.61c0.46,-3.54 -2.06,-6.82 -5.61,-7.28l-15.46,-2.01l-15.19,-28.72c-0.53,-1 -1.31,-1.78 -2.2,-2.36c-1.97,-1.73 -4.88,-2.19 -7.33,-0.89l-31.28,16.55c-2.08,1.1 -3.29,3.19 -3.42,5.39c-0.45,3.11 1.4,6.19 4.49,7.15l24.5,7.54c3.42,1.05 7.07,-0.88 8.12,-4.3c1.05,-3.42 -0.88,-7.07 -4.3,-8.12l-10.16,-3.13l12.73,-6.73l13.9,26.27l0.01,-0.01z" class="cls-1"/>
  <path id="svg_15" stroke-width="0px" fill="#00182d" d="m22.04,477.64c-1.26,-0.51 -2.94,-1.01 -5.43,-1.62c-3.54,-0.83 -5.23,-1.37 -6.51,-2.53c-0.6,-0.6 -0.9,-1.38 -0.9,-2.33c0,-2.79 2.87,-4.59 7.31,-4.59c2.31,0 4.59,0.38 6.74,1.13c0.3,0.13 0.55,0.19 0.78,0.19c1.2,0 1.95,-1.06 1.95,-2.03s-0.46,-1.6 -1.35,-1.93c-2.52,-0.94 -5.4,-1.42 -8.54,-1.42c-6.73,0 -11.26,3.6 -11.26,8.96c0,3.32 1.8,5.73 5.34,7.16c1.31,0.52 3.09,1.06 5.6,1.71c3.36,0.87 5.03,1.34 6.23,2.45c0.59,0.51 0.89,1.16 0.89,1.94c0,3.12 -2.35,4.64 -7.19,4.64c-2.91,0 -5.69,-0.58 -8.26,-1.72c-0.27,-0.14 -0.55,-0.2 -0.92,-0.2c-1.12,0 -1.99,0.89 -1.99,2.03c0,0.82 0.55,1.63 1.34,1.97c3.16,1.37 6.6,2.06 10.21,2.06c6.55,0 11.13,-3.51 11.13,-8.54c0,-4.41 -2.81,-6.42 -5.17,-7.33z" class="cls-1"/>
  <path id="svg_16" stroke-width="0px" fill="#00182d" d="m46.04,462.49c-8.89,0 -14.99,6.23 -15.17,15.51c0.18,9.27 6.27,15.5 15.17,15.5s14.99,-6.23 15.17,-15.51c-0.18,-9.27 -6.27,-15.5 -15.17,-15.5zm0,26.9c-6.46,0 -10.8,-4.58 -10.8,-11.39s4.34,-11.39 10.8,-11.39s10.8,4.58 10.8,11.39s-4.34,11.39 -10.8,11.39z" class="cls-1"/>
  <path id="svg_17" stroke-width="0px" fill="#00182d" d="m85.81,462.92l-16.53,0c-1.19,0 -2.16,0.99 -2.16,2.21l0,26.01c0,1.19 0.97,2.16 2.16,2.16s2.21,-0.97 2.21,-2.16l0,-11.1l12.84,0c1.17,0 2.08,-0.89 2.08,-2.04s-0.91,-2.08 -2.08,-2.08l-12.84,0l0,-8.89l14.33,0c1.17,0 2.08,-0.89 2.08,-2.04s-0.91,-2.08 -2.08,-2.08l-0.01,0.01z" class="cls-1"/>
  <path id="svg_18" stroke-width="0px" fill="#00182d" d="m112.71,462.92l-21.16,0c-1.14,0 -2.04,0.91 -2.04,2.08s0.88,2.04 2.04,2.04l8.42,0l0,24.1c0,1.19 0.97,2.16 2.16,2.16s2.21,-0.97 2.21,-2.16l0,-24.1l8.38,0c1.17,0 2.08,-0.89 2.08,-2.04s-0.91,-2.08 -2.08,-2.08l-0.01,0z" class="cls-1"/>
  <path id="svg_19" stroke-width="0px" fill="#00182d" d="m154.99,462.7c-0.96,0 -1.81,0.67 -2.15,1.71l-6.9,22.68l-6.94,-22.59c-0.33,-1.07 -1.31,-1.79 -2.45,-1.79s-2.12,0.72 -2.45,1.79l-6.94,22.59l-6.9,-22.68c-0.34,-1.03 -1.19,-1.7 -2.15,-1.7c-0.63,0 -1.19,0.22 -1.58,0.63c-0.37,0.39 -0.57,0.92 -0.54,1.49c0,0.2 0.05,0.48 0.14,0.8l8.33,25.59c0.51,1.34 1.48,2.07 2.74,2.07s2.38,-0.84 2.75,-2.09l6.6,-20.92l6.6,20.91c0.37,1.25 1.47,2.09 2.75,2.09s2.23,-0.74 2.74,-2.09l8.33,-25.59c0.09,-0.31 0.14,-0.59 0.14,-0.78c0.02,-0.58 -0.17,-1.11 -0.54,-1.5c-0.39,-0.4 -0.95,-0.63 -1.58,-0.63l0,0.01z" class="cls-1"/>
  <path id="svg_20" stroke-width="0px" fill="#00182d" d="m175.65,464.59c-0.56,-1.22 -1.51,-1.89 -2.69,-1.89l-0.42,0c-1.18,0 -2.13,0.67 -2.7,1.89l-10.84,25.59c-0.16,0.41 -0.23,0.71 -0.23,0.94c0,1.25 0.91,2.16 2.16,2.16c0.88,0 1.67,-0.51 2.06,-1.34l2.7,-6.48l14.11,0l2.7,6.49c0.39,0.82 1.17,1.33 2.05,1.33c1.25,0 2.16,-0.91 2.16,-2.16c0,-0.22 -0.07,-0.52 -0.23,-0.95l-10.84,-25.59l0.01,0.01zm2.46,16.85l-10.72,0l5.36,-12.91l5.36,12.91z" class="cls-1"/>
  <path id="svg_21" stroke-width="0px" fill="#00182d" d="m215.28,471.79c0,-5.56 -4.41,-8.88 -11.81,-8.88l-9.9,0c-1.19,0 -2.16,0.99 -2.16,2.21l0,26.01c0,1.19 0.97,2.16 2.16,2.16s2.21,-0.97 2.21,-2.16l0,-9.61l8.55,0c4.37,0 5.61,2.8 5.96,4.48c0.25,1.17 0.38,2.47 0.38,3.86l0,1.27c0,1.29 0.89,2.16 2.21,2.16c1.19,0 2.16,-0.97 2.16,-2.16l0,-1.95c0,-1.93 -0.39,-3.94 -1.16,-5.95c-0.66,-1.83 -1.89,-3.1 -3.65,-3.76c3.14,-1.35 5.07,-4.23 5.07,-7.67l-0.02,-0.01zm-4.37,0.3c0,3.3 -2.88,5.27 -7.7,5.27l-7.44,0l0,-10.29l7.23,0c5.47,0 7.91,1.55 7.91,5.02z" class="cls-1"/>
  <path id="svg_22" stroke-width="0px" fill="#00182d" d="m240.86,467.03c1.17,0 2.08,-0.89 2.08,-2.04s-0.91,-2.08 -2.08,-2.08l-17.04,0c-1.19,0 -2.16,0.99 -2.16,2.21l0,25.79c0,1.19 0.97,2.16 2.16,2.16l17.04,0c1.17,0 2.08,-0.89 2.08,-2.04s-0.91,-2.08 -2.08,-2.08l-14.84,0l0,-8.93l13.31,0c1.17,0 2.08,-0.89 2.08,-2.04s-0.91,-2.08 -2.08,-2.08l-13.31,0l0,-8.89l14.84,0l0,0.02z" class="cls-1"/>
  <path id="svg_23" stroke-width="0px" fill="#00182d" d="m286.42,477.64c-1.26,-0.51 -2.94,-1.01 -5.43,-1.62c-3.54,-0.83 -5.23,-1.37 -6.51,-2.53c-0.6,-0.6 -0.9,-1.38 -0.9,-2.33c0,-2.79 2.87,-4.59 7.31,-4.59c2.31,0 4.59,0.38 6.74,1.13c0.3,0.13 0.55,0.19 0.78,0.19c1.2,0 1.95,-1.06 1.95,-2.03s-0.46,-1.6 -1.35,-1.93c-2.52,-0.94 -5.4,-1.42 -8.54,-1.42c-6.73,0 -11.26,3.6 -11.26,8.96c0,3.32 1.8,5.73 5.34,7.16c1.31,0.52 3.09,1.06 5.6,1.71c3.36,0.87 5.03,1.34 6.23,2.45c0.59,0.51 0.89,1.16 0.89,1.94c0,3.12 -2.35,4.64 -7.19,4.64c-2.91,0 -5.69,-0.58 -8.26,-1.72c-0.27,-0.14 -0.55,-0.2 -0.92,-0.2c-1.12,0 -1.99,0.89 -1.99,2.03c0,0.82 0.55,1.63 1.34,1.97c3.16,1.37 6.6,2.06 10.21,2.06c6.55,0 11.13,-3.51 11.13,-8.54c0,-4.41 -2.81,-6.42 -5.17,-7.33z" class="cls-1"/>
  <path id="svg_24" stroke-width="0px" fill="#00182d" d="m310.42,462.49c-8.89,0 -14.99,6.23 -15.17,15.51c0.18,9.27 6.27,15.5 15.17,15.5s14.99,-6.23 15.17,-15.51c-0.18,-9.27 -6.27,-15.5 -15.17,-15.5zm0,26.9c-6.46,0 -10.8,-4.58 -10.8,-11.39s4.34,-11.39 10.8,-11.39s10.8,4.58 10.8,11.39s-4.34,11.39 -10.8,11.39z" class="cls-1"/>
  <path id="svg_25" stroke-width="0px" fill="#00182d" d="m349.51,488.71l-13.65,0l0,-23.8c0,-1.19 -1.01,-2.2 -2.21,-2.2s-2.16,0.99 -2.16,2.2l0,25.24c0,1.61 1.31,2.93 2.93,2.93l15.09,0c1.22,0 2.2,-0.97 2.2,-2.16s-1.01,-2.21 -2.2,-2.21z" class="cls-1"/>
  <path id="svg_26" stroke-width="0px" fill="#00182d" d="m378.44,462.7c-1.19,0 -2.16,0.99 -2.16,2.2l0,16.91c0,5.26 -4.19,7.65 -8.08,7.65s-8.08,-2.4 -8.08,-7.65l0,-16.91c0,-1.19 -1.01,-2.2 -2.2,-2.2s-2.16,0.99 -2.16,2.2l0,16.78c-0.05,3.21 1.05,6.04 3.18,8.18c2.28,2.29 5.67,3.64 9.08,3.64c0.06,0 0.12,0 0.19,0c3.49,0.07 6.95,-1.31 9.27,-3.64c2.13,-2.14 3.23,-4.96 3.18,-8.17l0,-16.78c0,-1.19 -1.01,-2.2 -2.2,-2.2l-0.02,-0.01z" class="cls-1"/>
  <path id="svg_27" stroke-width="0px" fill="#00182d" d="m407.85,462.92l-21.16,0c-1.14,0 -2.04,0.91 -2.04,2.08s0.88,2.04 2.04,2.04l8.42,0l0,24.1c0,1.19 0.97,2.16 2.16,2.16s2.21,-0.97 2.21,-2.16l0,-24.1l8.38,0c1.17,0 2.08,-0.89 2.08,-2.04s-0.91,-2.08 -2.08,-2.08l-0.01,0z" class="cls-1"/>
  <path id="svg_28" stroke-width="0px" fill="#00182d" d="m416.3,462.7c-1.19,0 -2.16,0.99 -2.16,2.2l0,26.22c0,1.19 0.97,2.16 2.16,2.16s2.21,-0.97 2.21,-2.16l0,-26.22c0,-1.19 -1.01,-2.2 -2.21,-2.2z" class="cls-1"/>
  <path id="svg_29" stroke-width="0px" fill="#00182d" d="m439.63,462.49c-8.89,0 -14.99,6.23 -15.17,15.51c0.18,9.27 6.27,15.5 15.17,15.5s14.99,-6.23 15.17,-15.51c-0.18,-9.27 -6.27,-15.5 -15.17,-15.5zm0,26.9c-6.46,0 -10.8,-4.58 -10.8,-11.39s4.34,-11.39 10.8,-11.39s10.8,4.58 10.8,11.39s-4.34,11.39 -10.8,11.39z" class="cls-1"/>
  <path id="svg_30" stroke-width="0px" fill="#00182d" d="m484.88,462.7c-1.19,0 -2.16,0.99 -2.16,2.2l0,22.15l-15.91,-22.98c-0.67,-0.9 -1.55,-1.37 -2.54,-1.37l-0.55,0c-1.66,0 -3.01,1.37 -3.01,3.05l0,25.37c0,1.19 0.97,2.16 2.16,2.16s2.21,-0.97 2.21,-2.16l0,-22.19l16,23.11c0.58,0.77 1.52,1.25 2.45,1.25l0.51,0c1.68,0 3.05,-1.35 3.05,-3.01l0,-25.37c0,-1.19 -1.01,-2.2 -2.21,-2.2l0,-0.01z" class="cls-1"/>
  <path id="svg_31" stroke-width="0px" fill="#00182d" d="m510.38,477.64c-1.26,-0.51 -2.94,-1.01 -5.43,-1.62c-3.54,-0.83 -5.23,-1.37 -6.51,-2.53c-0.6,-0.6 -0.9,-1.38 -0.9,-2.33c0,-2.79 2.87,-4.59 7.31,-4.59c2.31,0 4.59,0.38 6.74,1.13c0.3,0.13 0.55,0.19 0.78,0.19c1.2,0 1.95,-1.06 1.95,-2.03s-0.46,-1.6 -1.35,-1.93c-2.52,-0.94 -5.4,-1.42 -8.54,-1.42c-6.73,0 -11.26,3.6 -11.26,8.96c0,3.32 1.8,5.73 5.34,7.16c1.31,0.52 3.09,1.06 5.6,1.71c3.36,0.87 5.03,1.34 6.23,2.45c0.59,0.51 0.89,1.16 0.89,1.94c0,3.12 -2.35,4.64 -7.19,4.64c-2.91,0 -5.69,-0.58 -8.26,-1.72c-0.27,-0.14 -0.55,-0.2 -0.92,-0.2c-1.12,0 -1.99,0.89 -1.99,2.03c0,0.82 0.55,1.63 1.34,1.97c3.16,1.37 6.6,2.06 10.21,2.06c6.55,0 11.13,-3.51 11.13,-8.54c0,-4.41 -2.81,-6.42 -5.17,-7.33z" class="cls-1"/>
 </g>
</svg>