<?xml version="1.0" encoding="UTF-8"?>
<svg id="Layer_1" data-name="Layer 1" xmlns="http://www.w3.org/2000/svg" viewBox="0 0 522.24 498.8">
  <defs>
    <style>
      .cls-1 {
        fill: #00182d;
        stroke-width: 0px;
      }
    </style>
  </defs>
  <path class="cls-1" d="m11.58,438.45c5.02,0,9.1-4.02,9.1-8.97v-64.19l26.59,65.71c1.99,4.52,6.45,7.45,11.36,7.45s9.37-2.92,11.39-7.52l26.55-65.64v64.19c0,4.94,4.08,8.97,9.11,8.97s8.97-4.02,8.97-8.97v-82.37c0-6.54-5.26-11.87-11.73-11.87h-4.55c-4.57,0-8.86,2.91-10.98,7.53l-28.76,71.7-28.81-71.83c-2.06-4.5-6.35-7.41-10.93-7.41h-4.55c-6.47,0-11.73,5.32-11.73,11.87v82.37c0,4.94,4.02,8.97,8.97,8.97Z"/>
  <path class="cls-1" d="m181.28,334.56c-30.02,0-50.59,20.99-51.19,52.34.6,31.24,21.17,52.24,51.19,52.24s50.59-20.99,51.19-52.34c-.6-31.24-21.17-52.24-51.19-52.24Zm0,87.34c-19.81,0-33.11-14.08-33.11-35.05s13.31-35.05,33.11-35.05,33.11,14.08,33.11,35.05-13.31,35.05-33.11,35.05Z"/>
  <path class="cls-1" d="m293.16,334.56c-30.02,0-50.59,20.99-51.19,52.34.6,31.24,21.17,52.24,51.19,52.24s50.59-20.99,51.19-52.34c-.6-31.24-21.17-52.24-51.19-52.24Zm0,87.34c-19.81,0-33.11-14.08-33.11-35.05s13.31-35.05,33.11-35.05,33.11,14.08,33.11,35.05-13.31,35.05-33.11,35.05Z"/>
  <path class="cls-1" d="m412.82,383.87c-4.2-1.7-9.72-3.35-17.91-5.36-11.15-2.62-16.44-4.27-20.2-7.68-1.57-1.57-2.36-3.65-2.36-6.19,0-7.88,8.56-12.97,21.8-12.97,7.29,0,14.46,1.2,21.13,3.51,1.24.53,2.28.77,3.29.77,4.56,0,8.28-3.84,8.28-8.56,0-3.94-1.96-6.74-5.66-8.1-8.41-3.14-17.97-4.73-28.42-4.73-23.02,0-38.49,12.48-38.49,31.04,0,11.49,6.42,20.15,18.58,25.06,4.32,1.7,10.16,3.49,18.39,5.62,10.6,2.75,15.85,4.21,19.44,7.56,1.5,1.3,2.22,2.87,2.22,4.81,0,5.63-2.22,13.11-21.39,13.11-9.17,0-17.94-1.82-25.95-5.37-1.15-.58-2.38-.84-3.85-.84-4.72,0-8.42,3.76-8.42,8.56,0,3.4,2.27,6.76,5.53,8.19,10.51,4.55,21.92,6.85,33.93,6.85,22.42,0,38.08-12.2,38.08-29.66,0-12.03-6.4-21.12-18.03-25.61Z"/>
  <path class="cls-1" d="m508.93,420.52h-46.22v-25.11h41.25c4.87,0,8.69-3.76,8.69-8.56s-3.82-8.69-8.69-8.69h-41.25v-24.97h46.22c4.87,0,8.69-3.76,8.69-8.55s-3.82-8.69-8.69-8.69h-55.33c-4.95,0-8.97,4.08-8.97,9.11v83.75c0,4.94,4.02,8.97,8.97,8.97h55.33c4.87,0,8.69-3.76,8.69-8.56s-3.82-8.69-8.69-8.69Z"/>
  <path class="cls-1" d="m117.51,111.37l11.71,9.13,11.34,8.85c.9.71,1.94,1.1,3.01,1.27,0,0-.02.02-.02.03l.39.03c.13.01.25.02.38.03l15.8,1.08c3.59.22,6.7-2.54,6.92-6.13.22-3.59-2.54-6.7-6.13-6.92l-13.78-.84-.05-.04-20.07-15.65c-.05-.12-.07-.25-.12-.37l-11.84-26.73c-.09-.21-.22-.38-.33-.57,2.19-2.59,3.56-5.89,3.56-9.53,0-8.19-6.66-14.86-14.86-14.86s-14.86,6.66-14.86,14.86,6.39,14.52,14.33,14.8c.07.2.11.4.2.6l11.84,26.73c.06.14.15.25.22.38.3,1.48,1.08,2.86,2.35,3.86Zm-14.08-40.02c-3.5,0-6.35-2.85-6.35-6.35s2.85-6.35,6.35-6.35,6.35,2.85,6.35,6.35-2.85,6.35-6.35,6.35Z"/>
  <path class="cls-1" d="m152.38,47.29c.74.74,1.55,1.35,2.39,1.89,2.1,1.35,4.46,2.13,6.87,2.33.06.21.09.43.17.64l9.82,25.43-1.2,7.1c-.57,3.55,1.86,6.92,5.41,7.5s6.92-1.86,7.5-5.41l1.38-7.97c.11-.4.18-.81.21-1.22h0s0,0,0,0c.06-.8-.02-1.62-.27-2.43-.04-.14-.06-.29-.12-.43l-1-2.58-9.53-24.69c-.08-.2-.19-.37-.29-.56,5.42-5.82,5.33-14.94-.33-20.6-5.79-5.79-15.22-5.79-21.01,0-5.25,5.25-5.69,13.46-1.42,19.27.44.6.88,1.2,1.42,1.74Zm6.01-15c2.48-2.48,6.51-2.48,8.98,0,2.48,2.48,2.48,6.51,0,8.98-1.16,1.16-2.66,1.75-4.18,1.83-1.73.09-3.49-.51-4.81-1.83-1.21-1.21-1.82-2.8-1.85-4.39-.03-1.66.58-3.33,1.85-4.6Z"/>
  <path class="cls-1" d="m211.66,69c.02.06.02.12.04.19l17.74,53.53-1.43,13.36c-.57,3.55,1.86,6.92,5.41,7.5s6.92-1.86,7.5-5.41l2.71-16.5s-.02,0-.04.01c.21-1.16.17-2.38-.22-3.57l-17.74-53.53c-.18-.55-.44-1.05-.73-1.52,1.83-2.46,2.99-5.44,2.99-8.73,0-8.19-6.66-14.86-14.86-14.86s-14.86,6.66-14.86,14.86c0,7.72,5.94,13.98,13.48,14.69Zm1.38-21.04c3.5,0,6.35,2.85,6.35,6.35s-2.85,6.35-6.35,6.35-6.35-2.85-6.35-6.35,2.85-6.35,6.35-6.35Z"/>
  <path class="cls-1" d="m401.95,64.71c0,3.65,1.37,6.94,3.56,9.53-.11.19-.24.37-.33.57l-11.84,26.73c-.05.12-.07.25-.12.37l-20.07,15.65-.05.04-13.78.84c-3.59.22-6.35,3.33-6.13,6.92.22,3.59,3.33,6.35,6.92,6.13l15.8-1.08c.13,0,.26-.01.38-.03l.39-.03s-.01-.02-.02-.03c1.06-.16,2.1-.56,3.01-1.27l11.34-8.85,11.71-9.13c1.27-.99,2.05-2.38,2.35-3.86.07-.13.16-.25.22-.38l11.84-26.73c.09-.2.13-.4.2-.6,7.94-.28,14.33-6.79,14.33-14.8s-6.66-14.86-14.86-14.86-14.86,6.66-14.86,14.86Zm21.21,0c0,3.5-2.85,6.35-6.35,6.35s-6.35-2.85-6.35-6.35,2.85-6.35,6.35-6.35,6.35,2.85,6.35,6.35Z"/>
  <path class="cls-1" d="m335.31,77.28h0c.03.42.1.83.21,1.23l1.38,7.97c.57,3.55,3.95,5.98,7.5,5.41s5.98-3.95,5.41-7.5l-1.21-7.1,9.82-25.43c.08-.21.12-.42.17-.64,2.41-.2,4.77-.98,6.87-2.33.84-.54,1.65-1.15,2.39-1.89.54-.54.98-1.14,1.42-1.74,4.27-5.81,3.83-14.02-1.42-19.27-5.79-5.79-15.22-5.79-21.01,0-5.67,5.67-5.75,14.78-.33,20.6-.09.19-.21.36-.28.56l-9.53,24.69h0s-1,2.58-1,2.58c-.05.14-.07.28-.12.43-.25.8-.33,1.63-.27,2.43,0,0,0,0,0,0Zm17.55-45.27c2.48-2.48,6.51-2.48,8.98,0,1.26,1.26,1.87,2.93,1.85,4.6-.03,1.59-.64,3.18-1.85,4.39-1.32,1.32-3.08,1.91-4.81,1.83-1.52-.08-3.02-.67-4.18-1.83-2.48-2.48-2.48-6.51,0-8.98Z"/>
  <path class="cls-1" d="m276.6,121.38l2.71,16.5c.57,3.55,3.95,5.98,7.5,5.41,3.55-.57,5.98-3.95,5.41-7.5l-1.43-13.36,17.74-53.53c.02-.06.02-.12.04-.19,7.53-.71,13.48-6.97,13.48-14.69,0-8.19-6.66-14.86-14.86-14.86s-14.86,6.66-14.86,14.86c0,3.29,1.16,6.27,2.99,8.73-.29.47-.55.97-.73,1.52l-17.74,53.53c-.4,1.19-.43,2.41-.22,3.57-.01,0-.02,0-.04-.01Zm30.6-73.71c3.5,0,6.35,2.85,6.35,6.35s-2.85,6.35-6.35,6.35-6.35-2.85-6.35-6.35,2.85-6.35,6.35-6.35Z"/>
  <path class="cls-1" d="m111.64,31.67c.1.59.24,1.17.49,1.74l27.34,62.42c.88,2.01,2.57,3.4,4.52,4.02.1.06.19.13.3.19l59.52,29.4,28.23,58.34c.9,1.87,2.52,3.17,4.36,3.77.11.07.21.14.33.19l15.75,6.98v84.16l-.13-.18c-.12-.33-.27-.66-.49-.96l-4.42-6.88-4.96-33.95s-.02-.07-.03-.11c3.9-2.44,5.43-7.47,3.32-11.67-2.24-4.45-7.68-6.26-12.13-4.02-4.45,2.24-6.26,7.68-4.03,12.13.9,1.79,2.34,3.1,4.01,3.93-.03.34-.03.68.02,1.03l4.96,33.95c.11.76.42,1.43.85,2,0,0-.01,0-.02,0l5.98,8.23s.04.04.06.06l10.46,15.05c.37.53.87.9,1.41,1.18.09.07.13.18.22.25,1.73,1.26,4.18.88,5.45-.85l11.23-15.37c.1-.11.2-.2.29-.32l6-8.22s-.01,0-.02,0c.43-.57.75-1.25.86-2l5.04-33.94c.05-.35.05-.69.02-1.03,1.67-.83,3.11-2.14,4.02-3.93,2.24-4.45.45-9.9-4-12.14-4.45-2.25-9.9-.45-12.14,4-2.11,4.19-.6,9.22,3.3,11.67,0,.04-.02.07-.03.11l-5.04,33.94-4.44,6.87c-.18.25-.32.52-.44.79l-.15.2v-84.18l15.99-7.08c.12-.05.22-.12.33-.19,1.84-.6,3.45-1.9,4.36-3.77l28.23-58.34,59.52-29.4c.11-.05.19-.13.3-.19,1.95-.62,3.64-2.01,4.52-4.02l27.34-62.42c.25-.57.39-1.15.49-1.74,7.58-.67,13.56-6.95,13.56-14.7,0-8.19-6.66-14.86-14.86-14.86s-14.86,6.66-14.86,14.86c0,3.41,1.23,6.49,3.17,8.99-.37.47-.71.98-.96,1.55l-26.21,59.84-60.1,29.69c-.91.45-1.68,1.06-2.3,1.79-.82.66-1.52,1.48-2,2.49l-28.95,59.84-15.3,6.78-14.64-6.48-28.95-59.84c-.49-1-1.19-1.83-2-2.49-.62-.72-1.4-1.34-2.3-1.79l-60.1-29.69-26.21-59.84c-.25-.57-.59-1.08-.96-1.55,1.94-2.5,3.17-5.58,3.17-8.99,0-8.19-6.66-14.86-14.86-14.86s-14.86,6.66-14.86,14.86c0,7.75,5.99,14.03,13.56,14.7Zm127.79,204.96c-1.9.96-4.23.18-5.19-1.72-.96-1.91-.18-4.23,1.72-5.19,1.9-.96,4.23-.18,5.19,1.72.96,1.9.18,4.23-1.72,5.19Zm39.49-5.18c.96-1.9,3.29-2.67,5.19-1.71,1.9.96,2.67,3.29,1.71,5.19-.96,1.9-3.29,2.67-5.19,1.71-1.9-.96-2.67-3.29-1.71-5.19ZM407.3,10.32c3.5,0,6.35,2.85,6.35,6.35s-2.85,6.35-6.35,6.35-6.35-2.85-6.35-6.35,2.85-6.35,6.35-6.35Zm-294.37.29c3.5,0,6.35,2.85,6.35,6.35s-2.85,6.35-6.35,6.35-6.35-2.85-6.35-6.35,2.85-6.35,6.35-6.35Z"/>
  <path class="cls-1" d="m321.76,198.19c1.05,3.42,4.71,5.35,8.12,4.3l24.5-7.54c3.09-.95,4.94-4.04,4.49-7.15-.13-2.2-1.34-4.29-3.42-5.39l-31.28-16.55c-2.45-1.3-5.36-.84-7.33.89-.89.58-1.67,1.36-2.2,2.36l-15.19,28.72-15.46,2.01c-3.54.46-6.07,3.74-5.61,7.28.46,3.54,3.74,6.07,7.28,5.61l18.33-2.38c1.19-.15,2.24-.64,3.12-1.33,1.01-.59,1.89-1.44,2.47-2.55l13.9-26.27,12.73,6.73-10.16,3.13c-3.42,1.05-5.35,4.71-4.3,8.12Z"/>
  <path class="cls-1" d="m213.47,206.48c.59,1.11,1.46,1.96,2.47,2.55.88.69,1.94,1.18,3.12,1.33l18.33,2.38c3.54.46,6.82-2.06,7.28-5.61.46-3.54-2.06-6.82-5.61-7.28l-15.46-2.01-15.19-28.72c-.53-1-1.31-1.78-2.2-2.36-1.97-1.73-4.88-2.19-7.33-.89l-31.28,16.55c-2.08,1.1-3.29,3.19-3.42,5.39-.45,3.11,1.4,6.19,4.49,7.15l24.5,7.54c3.42,1.05,7.07-.88,8.12-4.3,1.05-3.42-.88-7.07-4.3-8.12l-10.16-3.13,12.73-6.73,13.9,26.27Z"/>
  <path class="cls-1" d="m22.04,477.64c-1.26-.51-2.94-1.01-5.43-1.62-3.54-.83-5.23-1.37-6.51-2.53-.6-.6-.9-1.38-.9-2.33,0-2.79,2.87-4.59,7.31-4.59,2.31,0,4.59.38,6.74,1.13.3.13.55.19.78.19,1.2,0,1.95-1.06,1.95-2.03s-.46-1.6-1.35-1.93c-2.52-.94-5.4-1.42-8.54-1.42-6.73,0-11.26,3.6-11.26,8.96,0,3.32,1.8,5.73,5.34,7.16,1.31.52,3.09,1.06,5.6,1.71,3.36.87,5.03,1.34,6.23,2.45.59.51.89,1.16.89,1.94,0,3.12-2.35,4.64-7.19,4.64-2.91,0-5.69-.58-8.26-1.72-.27-.14-.55-.2-.92-.2-1.12,0-1.99.89-1.99,2.03,0,.82.55,1.63,1.34,1.97,3.16,1.37,6.6,2.06,10.21,2.06,6.55,0,11.13-3.51,11.13-8.54,0-4.41-2.81-6.42-5.17-7.33Z"/>
  <path class="cls-1" d="m46.04,462.49c-8.89,0-14.99,6.23-15.17,15.51.18,9.27,6.27,15.5,15.17,15.5s14.99-6.23,15.17-15.51c-.18-9.27-6.27-15.5-15.17-15.5Zm0,26.9c-6.46,0-10.8-4.58-10.8-11.39s4.34-11.39,10.8-11.39,10.8,4.58,10.8,11.39-4.34,11.39-10.8,11.39Z"/>
  <path class="cls-1" d="m85.81,462.92h-16.53c-1.19,0-2.16.99-2.16,2.21v26.01c0,1.19.97,2.16,2.16,2.16s2.21-.97,2.21-2.16v-11.1h12.84c1.17,0,2.08-.89,2.08-2.04s-.91-2.08-2.08-2.08h-12.84v-8.89h14.33c1.17,0,2.08-.89,2.08-2.04s-.91-2.08-2.08-2.08Z"/>
  <path class="cls-1" d="m112.71,462.92h-21.16c-1.14,0-2.04.91-2.04,2.08s.88,2.04,2.04,2.04h8.42v24.1c0,1.19.97,2.16,2.16,2.16s2.21-.97,2.21-2.16v-24.1h8.38c1.17,0,2.08-.89,2.08-2.04s-.91-2.08-2.08-2.08Z"/>
  <path class="cls-1" d="m154.99,462.7c-.96,0-1.81.67-2.15,1.71l-6.9,22.68-6.94-22.59c-.33-1.07-1.31-1.79-2.45-1.79s-2.12.72-2.45,1.79l-6.94,22.59-6.9-22.68c-.34-1.03-1.19-1.7-2.15-1.7-.63,0-1.19.22-1.58.63-.37.39-.57.92-.54,1.49,0,.2.05.48.14.8l8.33,25.59c.51,1.34,1.48,2.07,2.74,2.07s2.38-.84,2.75-2.09l6.6-20.92,6.6,20.91c.37,1.25,1.47,2.09,2.75,2.09s2.23-.74,2.74-2.09l8.33-25.59c.09-.31.14-.59.14-.78.02-.58-.17-1.11-.54-1.5-.39-.4-.95-.63-1.58-.63Z"/>
  <path class="cls-1" d="m175.65,464.59c-.56-1.22-1.51-1.89-2.69-1.89h-.42c-1.18,0-2.13.67-2.7,1.89l-10.84,25.59c-.16.41-.23.71-.23.94,0,1.25.91,2.16,2.16,2.16.88,0,1.67-.51,2.06-1.34l2.7-6.48h14.11l2.7,6.49c.39.82,1.17,1.33,2.05,1.33,1.25,0,2.16-.91,2.16-2.16,0-.22-.07-.52-.23-.95l-10.84-25.59Zm2.46,16.85h-10.72l5.36-12.91,5.36,12.91Z"/>
  <path class="cls-1" d="m215.28,471.79c0-5.56-4.41-8.88-11.81-8.88h-9.9c-1.19,0-2.16.99-2.16,2.21v26.01c0,1.19.97,2.16,2.16,2.16s2.21-.97,2.21-2.16v-9.61h8.55c4.37,0,5.61,2.8,5.96,4.48.25,1.17.38,2.47.38,3.86v1.27c0,1.29.89,2.16,2.21,2.16,1.19,0,2.16-.97,2.16-2.16v-1.95c0-1.93-.39-3.94-1.16-5.95-.66-1.83-1.89-3.1-3.65-3.76,3.14-1.35,5.07-4.23,5.07-7.67Zm-4.37.3c0,3.3-2.88,5.27-7.7,5.27h-7.44v-10.29h7.23c5.47,0,7.91,1.55,7.91,5.02Z"/>
  <path class="cls-1" d="m240.86,467.03c1.17,0,2.08-.89,2.08-2.04s-.91-2.08-2.08-2.08h-17.04c-1.19,0-2.16.99-2.16,2.21v25.79c0,1.19.97,2.16,2.16,2.16h17.04c1.17,0,2.08-.89,2.08-2.04s-.91-2.08-2.08-2.08h-14.84v-8.93h13.31c1.17,0,2.08-.89,2.08-2.04s-.91-2.08-2.08-2.08h-13.31v-8.89h14.84Z"/>
  <path class="cls-1" d="m286.42,477.64c-1.26-.51-2.94-1.01-5.43-1.62-3.54-.83-5.23-1.37-6.51-2.53-.6-.6-.9-1.38-.9-2.33,0-2.79,2.87-4.59,7.31-4.59,2.31,0,4.59.38,6.74,1.13.3.13.55.19.78.19,1.2,0,1.95-1.06,1.95-2.03s-.46-1.6-1.35-1.93c-2.52-.94-5.4-1.42-8.54-1.42-6.73,0-11.26,3.6-11.26,8.96,0,3.32,1.8,5.73,5.34,7.16,1.31.52,3.09,1.06,5.6,1.71,3.36.87,5.03,1.34,6.23,2.45.59.51.89,1.16.89,1.94,0,3.12-2.35,4.64-7.19,4.64-2.91,0-5.69-.58-8.26-1.72-.27-.14-.55-.2-.92-.2-1.12,0-1.99.89-1.99,2.03,0,.82.55,1.63,1.34,1.97,3.16,1.37,6.6,2.06,10.21,2.06,6.55,0,11.13-3.51,11.13-8.54,0-4.41-2.81-6.42-5.17-7.33Z"/>
  <path class="cls-1" d="m310.42,462.49c-8.89,0-14.99,6.23-15.17,15.51.18,9.27,6.27,15.5,15.17,15.5s14.99-6.23,15.17-15.51c-.18-9.27-6.27-15.5-15.17-15.5Zm0,26.9c-6.46,0-10.8-4.58-10.8-11.39s4.34-11.39,10.8-11.39,10.8,4.58,10.8,11.39-4.34,11.39-10.8,11.39Z"/>
  <path class="cls-1" d="m349.51,488.71h-13.65v-23.8c0-1.19-1.01-2.2-2.21-2.2s-2.16.99-2.16,2.2v25.24c0,1.61,1.31,2.93,2.93,2.93h15.09c1.22,0,2.2-.97,2.2-2.16s-1.01-2.21-2.2-2.21Z"/>
  <path class="cls-1" d="m378.44,462.7c-1.19,0-2.16.99-2.16,2.2v16.91c0,5.26-4.19,7.65-8.08,7.65s-8.08-2.4-8.08-7.65v-16.91c0-1.19-1.01-2.2-2.2-2.2s-2.16.99-2.16,2.2v16.78c-.05,3.21,1.05,6.04,3.18,8.18,2.28,2.29,5.67,3.64,9.08,3.64.06,0,.12,0,.19,0,3.49.07,6.95-1.31,9.27-3.64,2.13-2.14,3.23-4.96,3.18-8.17v-16.78c0-1.19-1.01-2.2-2.2-2.2Z"/>
  <path class="cls-1" d="m407.85,462.92h-21.16c-1.14,0-2.04.91-2.04,2.08s.88,2.04,2.04,2.04h8.42v24.1c0,1.19.97,2.16,2.16,2.16s2.21-.97,2.21-2.16v-24.1h8.38c1.17,0,2.08-.89,2.08-2.04s-.91-2.08-2.08-2.08Z"/>
  <path class="cls-1" d="m416.3,462.7c-1.19,0-2.16.99-2.16,2.2v26.22c0,1.19.97,2.16,2.16,2.16s2.21-.97,2.21-2.16v-26.22c0-1.19-1.01-2.2-2.21-2.2Z"/>
  <path class="cls-1" d="m439.63,462.49c-8.89,0-14.99,6.23-15.17,15.51.18,9.27,6.27,15.5,15.17,15.5s14.99-6.23,15.17-15.51c-.18-9.27-6.27-15.5-15.17-15.5Zm0,26.9c-6.46,0-10.8-4.58-10.8-11.39s4.34-11.39,10.8-11.39,10.8,4.58,10.8,11.39-4.34,11.39-10.8,11.39Z"/>
  <path class="cls-1" d="m484.88,462.7c-1.19,0-2.16.99-2.16,2.2v22.15l-15.91-22.98c-.67-.9-1.55-1.37-2.54-1.37h-.55c-1.66,0-3.01,1.37-3.01,3.05v25.37c0,1.19.97,2.16,2.16,2.16s2.21-.97,2.21-2.16v-22.19l16,23.11c.58.77,1.52,1.25,2.45,1.25h.51c1.68,0,3.05-1.35,3.05-3.01v-25.37c0-1.19-1.01-2.2-2.21-2.2Z"/>
  <path class="cls-1" d="m510.38,477.64c-1.26-.51-2.94-1.01-5.43-1.62-3.54-.83-5.23-1.37-6.51-2.53-.6-.6-.9-1.38-.9-2.33,0-2.79,2.87-4.59,7.31-4.59,2.31,0,4.59.38,6.74,1.13.3.13.55.19.78.19,1.2,0,1.95-1.06,1.95-2.03s-.46-1.6-1.35-1.93c-2.52-.94-5.4-1.42-8.54-1.42-6.73,0-11.26,3.6-11.26,8.96,0,3.32,1.8,5.73,5.34,7.16,1.31.52,3.09,1.06,5.6,1.71,3.36.87,5.03,1.34,6.23,2.45.59.51.89,1.16.89,1.94,0,3.12-2.35,4.64-7.19,4.64-2.91,0-5.69-.58-8.26-1.72-.27-.14-.55-.2-.92-.2-1.12,0-1.99.89-1.99,2.03,0,.82.55,1.63,1.34,1.97,3.16,1.37,6.6,2.06,10.21,2.06,6.55,0,11.13-3.51,11.13-8.54,0-4.41-2.81-6.42-5.17-7.33Z"/>
</svg>