<svg width="64" height="64" viewBox="0 0 64 64" fill="none" xmlns="http://www.w3.org/2000/svg">
<path fill-rule="evenodd" clip-rule="evenodd" d="M26.3773 23.2786C26.3476 23.2786 26.2902 23.2786 26.2605 23.2786C25.768 23.2186 25.3625 22.7672 25.3625 22.2558C25.3328 21.7743 25.0716 10.5214 31.4195 7.96409C33.0139 7.33218 34.4936 7.45246 35.7398 8.38536C37.2749 9.49858 38.3767 11.725 39.0433 14.9745C39.5062 17.2612 39.5933 19.2468 39.5933 19.3372C39.6229 19.8185 39.2471 20.1797 38.7526 20.0894C38.26 20.0291 37.8545 19.578 37.8545 19.0965C37.7675 17.0505 37.1008 11.4242 34.8991 9.79937C34.2028 9.28794 33.3324 9.2277 32.2899 9.64897C26.8401 11.8453 27.1012 22.4062 27.1012 22.5265C27.1012 22.9477 26.8125 23.2786 26.3773 23.2786Z" fill="#595961"/>
<path opacity="0.46" fill-rule="evenodd" clip-rule="evenodd" d="M35.4192 8.44541C34.26 7.60287 32.899 7.48259 31.4193 8.05426C28.8398 9.10724 27.0141 11.8754 26.116 16.0877C25.4493 19.1866 25.5363 21.9849 25.5363 22.1052C25.5363 22.2556 25.5937 22.4062 25.7104 22.5265C25.8252 22.6467 25.9419 22.7371 26.0863 22.7371C26.1159 22.7371 26.1456 22.7371 26.1733 22.7371C26.4344 22.7371 26.6382 22.5265 26.6382 22.2556C26.6382 22.1353 26.3771 11.3939 31.9713 9.13736C33.1009 8.68617 34.086 8.74621 34.899 9.348C37.2451 11.063 37.9413 16.87 38.0284 18.9461C38.0284 19.2469 38.2895 19.5479 38.608 19.5778C38.8988 19.6079 39.1302 19.3973 39.1302 19.0965C39.1005 18.7354 38.7821 10.9126 35.4192 8.44541Z" fill="#B2B2C2"/>
<path opacity="0.46" fill-rule="evenodd" clip-rule="evenodd" d="M26.1159 22.376C26.0863 22.376 26.0863 22.376 26.0586 22.376C25.8845 22.3459 25.7381 22.1654 25.7104 21.9849C25.7104 21.8644 25.6234 19.1265 26.29 16.0274C27.1585 11.9055 28.9862 9.16743 31.5064 8.14437C32.9267 7.5727 34.2027 7.69318 35.3045 8.47548C38.5506 10.8523 38.8691 18.5549 38.8691 18.8858C38.8691 19.0663 38.7247 19.1866 38.5506 19.1567C38.3766 19.1265 38.2321 18.9761 38.2024 18.7655C38.2024 18.6751 37.884 11.1232 34.9563 8.95679C34.0859 8.32509 33.0138 8.23473 31.7972 8.71604C26.116 11.0931 26.3771 21.9849 26.3771 22.1051C26.4048 22.2555 26.29 22.376 26.1159 22.376Z" fill="#B2B2C2"/>
<path opacity="0.62" fill-rule="evenodd" clip-rule="evenodd" d="M28.4642 13.7711C28.6957 13.3199 28.9271 12.8685 29.1308 12.3872C29.0438 12.5376 28.4641 14.1022 26.6957 13.8615C26.666 13.8615 27.7382 14.1924 28.4642 13.7711Z" fill="#595961"/>
<path opacity="0.62" fill-rule="evenodd" clip-rule="evenodd" d="M27.825 15.6964C27.9991 15.2149 28.1732 14.7035 28.2899 14.2222C28.2325 14.4027 27.9417 16.0273 26.0862 16.0273C26.0862 16.0273 27.1584 16.238 27.825 15.6964Z" fill="#595961"/>
<path opacity="0.62" fill-rule="evenodd" clip-rule="evenodd" d="M37.9989 11.8154C37.7675 11.2737 37.5063 10.7623 37.2452 10.2207C37.3322 10.4012 38.2026 12.1162 37.2175 13.3497C37.2175 13.3497 37.9712 12.7481 37.9989 11.8154Z" fill="#595961"/>
<path opacity="0.62" fill-rule="evenodd" clip-rule="evenodd" d="M36.4065 9.10751C35.9416 8.71636 35.4787 8.35533 35.0138 8.02441C35.1879 8.17481 36.7249 9.28803 36.6378 10.9731C36.6082 10.9731 36.8694 9.98017 36.4065 9.10751Z" fill="#595961"/>
<path opacity="0.62" fill-rule="evenodd" clip-rule="evenodd" d="M29.3045 12.1158C29.6527 11.7548 29.9415 11.3637 30.2599 10.9424C30.1452 11.0627 29.1879 12.2964 27.4788 11.845C27.4788 11.845 28.4638 12.3867 29.3045 12.1158Z" fill="#595961"/>
<path opacity="0.62" fill-rule="evenodd" clip-rule="evenodd" d="M30.3768 10.732C30.7823 10.4312 31.1582 10.1302 31.536 9.79932C31.3916 9.88967 30.2028 10.8824 28.551 10.1603C28.551 10.1603 29.5064 10.8523 30.3768 10.732Z" fill="#595961"/>
<path opacity="0.62" fill-rule="evenodd" clip-rule="evenodd" d="M31.9416 9.73872C32.4342 9.58832 32.8991 9.40781 33.362 9.22729C33.1879 9.28733 31.7101 9.82888 30.2601 8.68555C30.2898 8.68555 31.0436 9.58832 31.9416 9.73872Z" fill="#595961"/>
<path opacity="0.62" fill-rule="evenodd" clip-rule="evenodd" d="M33.3619 9.19771C33.7675 9.25795 34.173 9.28807 34.5785 9.31819C34.4341 9.28807 33.1581 9.19771 32.4341 7.99414C32.4341 7.99414 32.725 8.80656 33.3619 9.19771Z" fill="#595961"/>
<path opacity="0.62" fill-rule="evenodd" clip-rule="evenodd" d="M35.0435 9.85899C35.3323 10.1901 35.6527 10.521 35.9989 10.8218C35.8842 10.7015 34.8991 9.70859 35.1306 8.4751C35.1009 8.4751 34.7824 9.16704 35.0435 9.85899Z" fill="#595961"/>
<path opacity="0.74" fill-rule="evenodd" clip-rule="evenodd" d="M38.5506 18.7354C38.5506 18.4043 38.2322 10.7921 35.073 8.4755C34.4638 8.02411 33.7971 7.81348 33.1008 7.81348C32.5786 7.81348 32.0286 7.93375 31.449 8.17451C28.9269 9.16745 27.1585 11.8453 26.29 15.9371C25.6234 19.0061 25.7104 21.7441 25.7104 21.8644C25.7104 21.9548 25.7975 22.0449 25.8845 22.0449H25.9121C25.9992 22.0449 26.0586 21.9849 26.0586 21.8945C26.0586 21.7743 25.7678 10.7921 31.5934 8.44538C32.8693 7.93375 33.9712 8.02411 34.8989 8.71606C37.9117 10.9126 38.2321 18.585 38.2321 18.6752C38.2321 18.7655 38.3192 18.8557 38.4062 18.8557C38.4062 18.8557 38.4062 18.8557 38.4339 18.8557C38.4932 18.8858 38.5506 18.8256 38.5506 18.7354Z" fill="url(#paint0_linear_20575_68117)"/>
<path fill-rule="evenodd" clip-rule="evenodd" d="M39.0433 14.9747C38.3766 11.7252 37.2748 9.52872 35.7398 8.38539C34.8991 7.7838 33.999 7.51292 33.0139 7.57316C33.7973 7.6332 34.5213 7.90408 35.1879 8.38539C36.7249 9.4988 37.8268 11.7252 38.4934 14.9747C38.9563 17.2614 39.0433 19.2471 39.0433 19.3374C39.0433 19.6985 38.8692 19.9693 38.5784 20.0595C38.6378 20.0896 38.6952 20.0896 38.7249 20.0896C39.2174 20.1498 39.5933 19.8187 39.5656 19.3374C39.5933 19.2471 39.5062 17.2915 39.0433 14.9747Z" fill="url(#paint1_linear_20575_68117)"/>
<path fill-rule="evenodd" clip-rule="evenodd" d="M31.7398 9.64907C26.29 11.8454 26.551 22.4063 26.551 22.5265C26.551 22.8876 26.377 23.1585 26.0862 23.2486C26.1455 23.2787 26.1733 23.2787 26.2326 23.2787C26.2603 23.2787 26.3196 23.2787 26.3473 23.2787C26.7825 23.2787 27.0713 22.9478 27.0713 22.5265C27.0713 22.4063 26.8122 11.8755 32.2601 9.67919C32.6379 9.52879 32.986 9.43843 33.3044 9.40831C32.8396 9.31815 32.3194 9.40831 31.7398 9.64907Z" fill="url(#paint2_linear_20575_68117)"/>
<path fill-rule="evenodd" clip-rule="evenodd" d="M39.9988 12.2663L15.4202 20.1492C15.4202 20.1492 14.3778 20.4502 14.1166 20.7811C13.8555 21.112 13.7981 22.0447 13.7981 22.0447L10 52.4335L38.5211 57.9696L40.7247 12.2362C40.4063 12.176 40.0858 12.2362 39.9988 12.2663Z" fill="url(#paint3_linear_20575_68117)"/>
<path fill-rule="evenodd" clip-rule="evenodd" d="M48.493 16.1778C48.493 16.1778 48.4633 15.937 48.3188 15.8468C48.2021 15.7565 48.0577 15.7565 48.0577 15.7565L44.0282 15.4557L41.0728 12.4168C40.9561 12.3265 40.8394 12.2664 40.695 12.2363L38.4934 57.9697L53.9407 54.5096L48.493 16.1778Z" fill="url(#paint4_linear_20575_68117)"/>
<path fill-rule="evenodd" clip-rule="evenodd" d="M29.8547 37.6603C29.4195 37.0585 28.8992 36.517 28.377 36.0355C27.8548 35.5541 27.3049 35.163 26.753 34.802C26.3771 34.5612 26.029 34.3205 25.7382 34.0797C25.4494 33.8391 25.2179 33.5984 25.0438 33.3877C24.8697 33.147 24.7253 32.9364 24.6383 32.6958C24.5512 32.455 24.5215 32.2143 24.5215 31.9735C24.5215 31.6426 24.6086 31.3117 24.7253 31.0408C24.84 30.7702 25.0438 30.5294 25.2456 30.3188C25.479 30.1081 25.7381 29.9577 26.0586 29.8375C26.3771 29.717 26.7529 29.6569 27.1584 29.6268C27.5936 29.5967 28.0288 29.6268 28.4343 29.657C28.8399 29.6869 29.2177 29.7772 29.5935 29.8674C29.9417 29.9577 30.2898 30.078 30.5786 30.1985C30.8694 30.3188 31.1582 30.4391 31.362 30.5595L33.2749 24.6623C32.9861 24.5119 32.638 24.3613 32.2601 24.2712C31.8546 24.1507 31.4194 24.0606 30.9268 24.0003C30.4343 23.9403 29.912 23.9102 29.3621 23.9102C28.8122 23.9102 28.2326 23.9403 27.6234 24.0304C26.3198 24.211 25.1586 24.572 24.1161 25.1135C23.1309 25.6252 22.2605 26.287 21.5365 27.0994C20.8402 27.8817 20.2902 28.7843 19.8847 29.8073C19.5069 30.8003 19.2755 31.9135 19.2181 33.1169C19.1885 33.8391 19.2458 34.501 19.4199 35.1028C19.5643 35.7045 19.7977 36.2762 20.1162 36.8178C20.405 37.3593 20.7828 37.8408 21.1883 38.292C21.5938 38.7434 22.0864 39.1647 22.579 39.5558C22.9845 39.8566 23.3327 40.1574 23.6235 40.4283C23.9123 40.6992 24.1457 40.9698 24.3178 41.2708C24.4919 41.5415 24.6086 41.8124 24.6956 42.1132C24.7826 42.384 24.8123 42.6848 24.7827 42.9858C24.7827 43.2866 24.6957 43.5874 24.579 43.8282C24.4642 44.0689 24.3178 44.3097 24.0864 44.4902C23.8846 44.6707 23.6235 44.791 23.3327 44.8512C23.0439 44.9113 22.6958 44.9414 22.3179 44.8813C21.8847 44.8211 21.4494 44.7008 21.0439 44.5201C20.6384 44.3697 20.231 44.1591 19.8551 43.9484C19.4793 43.738 19.1311 43.4972 18.8404 43.2866C18.5219 43.076 18.2607 42.8352 18.0589 42.6547L16.7533 47.1379C16.957 47.4387 17.2459 47.7096 17.5644 47.9802C17.8849 48.2511 18.2608 48.5218 18.696 48.7927C19.1311 49.0334 19.594 49.274 20.0866 49.4846C20.5792 49.6952 21.131 49.8758 21.6809 50.0264H21.7106H21.7383H21.768H21.7977C22.9846 50.297 24.1161 50.3573 25.1882 50.2069C26.29 50.0563 27.3048 49.6651 28.1732 49.0635C29.0713 48.4316 29.7972 47.5891 30.3472 46.4759C30.8991 45.3627 31.2176 44.0087 31.2749 42.4742C31.3046 41.5114 31.1879 40.669 30.9268 39.8867C30.6657 38.9841 30.2899 38.292 29.8547 37.6603Z" fill="url(#paint5_linear_20575_68117)"/>
<path opacity="0.226763" fill-rule="evenodd" clip-rule="evenodd" d="M16.9413 47.383C16.874 47.3033 16.8106 47.2218 16.7533 47.1381L18.0589 42.6549C18.0767 42.6717 18.0965 42.689 18.1163 42.7067C18.3101 42.8799 18.5515 43.0957 18.8403 43.2868C19.1311 43.4975 19.4793 43.7382 19.8551 43.9489C20.231 44.1593 20.6384 44.3699 21.0439 44.5205C21.4494 44.701 21.8847 44.8213 22.3179 44.8816C22.6957 44.9416 23.0439 44.9117 23.3327 44.8514C23.6235 44.7912 23.8846 44.6709 24.0864 44.4904C24.3178 44.3099 24.4642 44.0691 24.579 43.8284C24.6957 43.5876 24.7826 43.2868 24.7826 42.986C24.8123 42.685 24.7826 42.3842 24.6956 42.1134C24.6086 41.8126 24.4919 41.5417 24.3178 41.271C24.1536 40.985 23.936 40.7263 23.665 40.4688C23.8074 40.6297 23.9281 40.7948 24.029 40.97C24.2031 41.2409 24.3178 41.5116 24.4049 41.8126C24.4919 42.0833 24.5216 42.3842 24.4919 42.685C24.4919 42.986 24.4049 43.2868 24.2902 43.5276C24.1734 43.7683 24.029 44.0089 23.7975 44.1894C23.5938 44.3699 23.3327 44.4904 23.0439 44.5504C22.7531 44.6107 22.405 44.6408 22.0291 44.5806C21.5939 44.5205 21.1587 44.4 20.7532 44.2195C20.3476 44.0691 19.9421 43.8585 19.5643 43.6479C19.1884 43.4372 18.8403 43.1967 18.5515 42.986C18.2607 42.7949 18.0194 42.5791 17.8255 42.4059C17.8058 42.3882 17.7879 42.3709 17.7681 42.3541L16.4645 46.8371C16.5931 47.0287 16.7573 47.208 16.9413 47.383ZM21.2121 38.3196C21.1033 38.2119 20.9985 38.1026 20.8976 37.9914C20.4921 37.54 20.1162 37.0587 19.8254 36.5172C19.5069 35.9754 19.2755 35.4038 19.1311 34.8022C18.957 34.2004 18.8976 33.5384 18.9273 32.8163C18.9846 31.6127 19.2181 30.4995 19.594 29.5066C19.9995 28.4837 20.5514 27.5811 21.2458 26.7988C21.9718 25.9864 22.8401 25.3244 23.8252 24.8129C24.8697 24.2714 26.0289 23.9104 27.3325 23.7298C27.9418 23.6395 28.5214 23.6094 29.0713 23.6094C29.6232 23.6094 30.1455 23.6395 30.638 23.6997C31.1306 23.76 31.5658 23.8501 31.9713 23.9706C32.3472 24.0608 32.6953 24.2112 32.9861 24.3616L32.9406 24.5023C32.7309 24.4112 32.5014 24.3291 32.2601 24.2714C31.8546 24.1511 31.4194 24.0608 30.9268 24.0005C30.4343 23.9405 29.912 23.9104 29.3621 23.9104C28.8121 23.9104 28.2326 23.9405 27.6233 24.0306C26.3197 24.2112 25.1585 24.5722 24.1161 25.1139C23.1309 25.6254 22.2605 26.2872 21.5365 27.0996C20.8402 27.8819 20.2902 28.7845 19.8847 29.8076C19.5069 30.8005 19.2755 31.9137 19.2181 33.1171C19.1885 33.8394 19.2458 34.5012 19.4199 35.103C19.5643 35.7048 19.7977 36.2764 20.1162 36.818C20.405 37.3595 20.7828 37.841 21.1883 38.2922C21.1962 38.3013 21.2042 38.3105 21.2121 38.3196ZM25.1486 33.5112C25.3068 33.6901 25.5047 33.885 25.7382 34.0799C26.0289 34.3207 26.3771 34.5614 26.7529 34.8022C27.3048 35.1632 27.8547 35.5544 28.377 36.0357C28.5293 36.1758 28.6796 36.3209 28.83 36.4713C28.5886 36.2118 28.3373 35.9664 28.0861 35.7349C27.5659 35.2534 27.0141 34.8622 26.4641 34.5012C26.0863 34.2604 25.7382 34.0199 25.4494 33.7791C25.3406 33.6893 25.2416 33.5996 25.1486 33.5112Z" fill="black"/>
<path opacity="0.41" fill-rule="evenodd" clip-rule="evenodd" d="M45.0133 49.4551L44.0282 15.4558L43.8541 15.2753L44.319 48.9736C44.319 48.9736 40.2321 55.4123 39.6228 55.2318C38.7248 54.9612 41.3913 12.7479 41.3913 12.7479L41.1005 12.4471C40.9858 12.3568 40.8394 12.2967 40.7247 12.2666L38.5507 57.3681L38.521 58L39.2746 57.0071L45.0133 49.4551Z" fill="url(#paint6_linear_20575_68117)"/>
<path fill-rule="evenodd" clip-rule="evenodd" d="M33.9118 14.2224C33.5656 15.6364 33.1305 16.9603 32.812 17.7727C32.6083 18.2542 32.8397 18.7054 33.2749 18.7656C33.7398 18.8258 34.26 18.4947 34.4341 18.0134C34.4638 17.9231 35.2451 15.9675 35.7396 13.6507V13.6206L33.9118 14.2224Z" fill="url(#paint7_linear_20575_68117)"/>
<path fill-rule="evenodd" clip-rule="evenodd" d="M20.8403 18.4343C20.4348 19.3369 20.0292 20.1192 19.7384 20.6608C19.4793 21.1122 19.6237 21.5935 20.0589 21.7137C20.4921 21.8643 21.0717 21.5935 21.3328 21.1421C21.3624 21.082 22.2032 19.6078 22.9569 17.7422L20.8403 18.4343Z" fill="url(#paint8_linear_20575_68117)"/>
<path opacity="0.32" fill-rule="evenodd" clip-rule="evenodd" d="M38.521 57.9696L45.0133 49.4546L54.0001 54.5094L38.521 57.9696Z" fill="url(#paint9_linear_20575_68117)"/>
<path opacity="0.19" fill-rule="evenodd" clip-rule="evenodd" d="M38.521 57.9696L44.9559 49.4546L54.0001 54.5094L38.521 57.9696Z" fill="url(#paint10_linear_20575_68117)"/>
<path opacity="0.19" fill-rule="evenodd" clip-rule="evenodd" d="M38.521 57.9696L44.9559 49.4546L54.0001 54.5094L38.521 57.9696Z" fill="url(#paint11_linear_20575_68117)"/>
<path opacity="0.6" fill-rule="evenodd" clip-rule="evenodd" d="M32.2028 34.1404C35.5657 38.8641 37.8266 43.979 38.9561 48.9435L40.7246 12.2064C40.4062 12.1463 40.0857 12.2064 39.9987 12.2365L15.4201 20.1497C15.4201 20.1497 15.1886 20.2097 14.8978 20.3302C21.131 22.5566 27.3623 27.3406 32.2028 34.1404Z" fill="url(#paint12_linear_20575_68117)"/>
<path fill-rule="evenodd" clip-rule="evenodd" d="M48.3462 15.877C48.4926 15.9974 48.4927 16.178 48.4927 16.178L53.8831 54.4795L45.013 49.4248L44.028 15.4258L48.0001 15.7266C48.0278 15.7567 48.2018 15.7567 48.3462 15.877Z" fill="url(#paint13_linear_20575_68117)"/>
<path fill-rule="evenodd" clip-rule="evenodd" d="M47.7095 15.9676C47.7095 15.9676 47.8836 15.9676 48.0281 16.118C48.1725 16.2385 48.202 16.419 48.202 16.419L53.5075 54.2995L53.913 54.5402L48.5205 16.2084C48.5205 16.2084 48.4928 16.0279 48.3761 15.9076C48.2317 15.7871 48.0281 15.7871 48.0281 15.7871L44.0579 15.4863L47.7095 15.9676Z" fill="url(#paint14_linear_20575_68117)"/>
<path fill-rule="evenodd" clip-rule="evenodd" d="M10 52.4331L38.5211 57.9692L39.9136 26.6177L13.5468 27.3672L10 52.4331Z" fill="url(#paint15_linear_20575_68117)"/>
<path opacity="0.3" fill-rule="evenodd" clip-rule="evenodd" d="M19.3625 20.5876C19.1033 21.319 19.3585 22.0873 19.9361 22.3042C20.5117 22.521 21.1883 22.104 21.4494 21.3729C21.7085 20.6418 21.4514 19.8733 20.8758 19.6565C20.3001 19.4396 19.6216 19.8565 19.3625 20.5876Z" fill="white"/>
<path opacity="0.89" fill-rule="evenodd" clip-rule="evenodd" d="M19.331 20.2407C19.0719 20.9718 19.329 21.7403 19.9047 21.9571C20.4803 22.174 21.1588 21.7571 21.418 21.0259C21.6771 20.2946 21.422 19.5261 20.8444 19.3093C20.2687 19.0924 19.5922 19.5094 19.331 20.2407Z" fill="black"/>
<path fill-rule="evenodd" clip-rule="evenodd" d="M44.0579 15.4557L41.1005 12.4168C40.9858 12.3265 40.8394 12.2664 40.7247 12.2363L38.521 57.9697L45.043 49.4247L44.0579 15.4557Z" fill="url(#paint16_linear_20575_68117)"/>
<path fill-rule="evenodd" clip-rule="evenodd" d="M39.9988 12.267L15.4203 20.1498C15.4203 20.1498 14.3778 20.4508 14.1167 20.7817C14.087 20.8119 14.0869 20.842 14.0592 20.8721L38.8396 13.7713C39.0433 13.7111 39.5359 13.5306 39.4785 15.0048L37.9711 57.91L38.4934 58.0004L40.6951 12.267C40.4063 12.1766 40.0858 12.2368 39.9988 12.267Z" fill="url(#paint17_linear_20575_68117)"/>
<path fill-rule="evenodd" clip-rule="evenodd" d="M39.9988 12.267L15.4203 20.1498C15.4203 20.1498 14.3778 20.4508 14.1167 20.7817C14.087 20.8119 14.0869 20.842 14.0592 20.8721L19.7978 19.2171L39.5359 12.8687C39.6229 12.8386 39.9415 12.7784 40.2599 12.8386L38.086 57.91L38.4934 58.0004L40.6951 12.267C40.4063 12.1766 40.0858 12.2368 39.9988 12.267Z" fill="url(#paint18_linear_20575_68117)"/>
<path opacity="0.32" fill-rule="evenodd" clip-rule="evenodd" d="M46.319 50.177L45.0133 49.4248L38.4934 57.9697L38.8396 57.8793C38.8396 57.8793 44.5801 50.2071 45.1004 49.9664C45.4782 49.816 46.319 50.177 46.319 50.177Z" fill="url(#paint19_linear_20575_68117)"/>
<path opacity="0.57" fill-rule="evenodd" clip-rule="evenodd" d="M38.521 57.9697L45.043 49.4248C45.0133 49.4549 40.8987 54.1184 38.521 57.9697Z" fill="url(#paint20_linear_20575_68117)"/>
<path opacity="0.46" fill-rule="evenodd" clip-rule="evenodd" d="M53.9999 54.5094L45.0428 49.4546C45.0132 49.4546 46.0577 49.6351 53.9999 54.5094Z" fill="url(#paint21_linear_20575_68117)"/>
<path opacity="0.3" fill-rule="evenodd" clip-rule="evenodd" d="M32.6142 17.5876C32.3531 18.3189 32.6102 19.0874 33.1859 19.3043C33.7635 19.5213 34.4401 19.1043 34.6992 18.3732C34.9603 17.6419 34.7032 16.8734 34.1275 16.6564C33.5519 16.4397 32.8733 16.8565 32.6142 17.5876Z" fill="white"/>
<path opacity="0.89" fill-rule="evenodd" clip-rule="evenodd" d="M32.5826 17.2419C32.3235 17.9733 32.5807 18.7418 33.1563 18.9587C33.732 19.1754 34.4104 18.7587 34.6695 18.0274C34.9287 17.2963 34.6735 16.5278 34.0978 16.3108C33.5202 16.0939 32.8437 16.5108 32.5826 17.2419Z" fill="black"/>
<path fill-rule="evenodd" clip-rule="evenodd" d="M20.3774 21.7142C20.3477 21.7142 20.2903 21.7142 20.2606 21.7142C19.7978 21.6541 19.4793 21.2028 19.5367 20.6913C19.5941 20.2098 21.2458 8.95698 28.0288 6.39963C29.738 5.76773 31.1879 5.88801 32.2898 6.82091C33.623 7.93412 34.347 10.1606 34.4638 13.41C34.5508 15.6967 34.2898 17.6824 34.2898 17.7728C34.2324 18.2541 33.7972 18.6153 33.3323 18.5249C32.8694 18.4647 32.5212 18.0135 32.6083 17.532C32.8694 15.4861 33.1582 9.85976 31.2176 8.23492C30.6084 7.72349 29.7677 7.66325 28.6382 8.08452C22.8125 10.2808 21.2754 20.8417 21.2754 20.9319C21.1587 21.3833 20.8126 21.7142 20.3774 21.7142Z" fill="#595961"/>
<path opacity="0.46" fill-rule="evenodd" clip-rule="evenodd" d="M31.9417 6.88078C30.9269 6.03843 29.5937 5.91815 27.9993 6.48982C25.2457 7.5428 22.9272 10.3108 21.3328 14.493C20.1459 17.5921 19.7385 20.3902 19.7385 20.5106C19.7108 20.661 19.7682 20.8114 19.8552 20.9319C19.9423 21.0522 20.0589 21.1425 20.2033 21.1425C20.231 21.1425 20.2607 21.1425 20.2904 21.1425C20.5515 21.1425 20.7829 20.9319 20.8125 20.661C20.8402 20.5408 22.3773 9.79935 28.3771 7.5428C29.5936 7.09141 30.5787 7.15166 31.275 7.75344C33.3323 9.46845 33.0435 15.2753 32.7824 17.3513C32.7527 17.6523 32.9565 17.9531 33.2453 17.9832C33.5361 18.0133 33.8249 17.8027 33.8545 17.5019C33.8842 17.1708 34.899 9.34816 31.9417 6.88078Z" fill="#B2B2C2"/>
<path opacity="0.81" fill-rule="evenodd" clip-rule="evenodd" d="M20.2607 20.8116C20.2311 20.8116 20.2311 20.8116 20.2034 20.8116C20.0293 20.7814 19.9126 20.6009 19.9422 20.4204C19.9719 20.2999 20.3478 17.5621 21.5367 14.463C23.1311 10.341 25.392 7.60297 28.0863 6.57992C29.6233 6.00825 30.8696 6.12873 31.825 6.91103C34.6657 9.28786 33.6805 16.9904 33.6232 17.3213C33.5935 17.5018 33.4491 17.6221 33.2454 17.5922C33.0733 17.5621 32.9566 17.4117 32.9566 17.201C32.9566 17.1107 33.9417 9.55873 31.3918 7.39234C30.6381 6.82067 29.5937 6.76063 28.3198 7.24194C22.2033 9.55873 20.6089 20.4204 20.6089 20.5407C20.5793 20.6911 20.4348 20.8116 20.2607 20.8116Z" fill="#B2B2C2"/>
<path opacity="0.42" fill-rule="evenodd" clip-rule="evenodd" d="M24.0864 12.2062C24.4049 11.755 24.6956 11.3036 24.9844 10.8223C24.8697 10.9727 24.029 12.5373 22.2902 12.2965C22.2605 12.2965 23.2753 12.6274 24.0864 12.2062Z" fill="#595961"/>
<path opacity="0.42" fill-rule="evenodd" clip-rule="evenodd" d="M23.1014 14.1315C23.3626 13.65 23.6236 13.1385 23.8254 12.6572C23.7383 12.8377 23.1587 14.4624 21.3329 14.4624C21.3329 14.4624 22.3478 14.673 23.1014 14.1315Z" fill="#595961"/>
<path opacity="0.42" fill-rule="evenodd" clip-rule="evenodd" d="M22.3476 16.118C22.5791 15.6064 22.7532 15.0949 22.9273 14.5835C22.8402 14.764 22.5218 16.4188 20.6089 16.6294C20.6089 16.5993 21.6513 16.7198 22.3476 16.118Z" fill="#595961"/>
<path opacity="0.62" fill-rule="evenodd" clip-rule="evenodd" d="M33.9414 10.2505C33.797 9.70873 33.6525 9.19731 33.4488 8.65576C33.5061 8.83628 34.0858 10.5513 32.8989 11.7848C32.8989 11.7848 33.7673 11.1832 33.9414 10.2505Z" fill="#595961"/>
<path opacity="0.62" fill-rule="evenodd" clip-rule="evenodd" d="M32.8121 7.54257C32.4066 7.15141 31.999 6.79039 31.5935 6.45947C31.7399 6.60987 33.1009 7.72308 32.7251 9.40797C32.6954 9.40797 33.1306 8.41503 32.8121 7.54257Z" fill="#595961"/>
<path opacity="0.62" fill-rule="evenodd" clip-rule="evenodd" d="M34.2323 13.0187C34.2026 12.4772 34.1156 11.9055 34.0286 11.3638C34.0286 11.5744 34.3194 13.3496 32.9268 14.3125C32.9268 14.3125 33.8841 13.8912 34.2323 13.0187Z" fill="#595961"/>
<path opacity="0.62" fill-rule="evenodd" clip-rule="evenodd" d="M34.3768 15.8471C34.4065 15.3056 34.4065 14.7339 34.3768 14.1924C34.3768 14.403 34.4064 16.1783 32.9268 16.9905C32.9268 16.9606 33.9416 16.6596 34.3768 15.8471Z" fill="#595961"/>
<path opacity="0.42" fill-rule="evenodd" clip-rule="evenodd" d="M21.6808 18.314C21.8548 17.7724 21.9716 17.2309 22.0863 16.7192C22.029 16.8998 21.7679 18.6148 19.9994 19.036C20.0291 19.036 21.0715 19.0059 21.6808 18.314Z" fill="#595961"/>
<path opacity="0.42" fill-rule="evenodd" clip-rule="evenodd" d="M25.1883 10.5509C25.5938 10.1899 25.9716 9.79871 26.3197 9.37744C26.1733 9.49772 25.0142 10.7314 23.3921 10.28C23.4198 10.28 24.3179 10.8218 25.1883 10.5509Z" fill="#595961"/>
<path opacity="0.42" fill-rule="evenodd" clip-rule="evenodd" d="M26.4916 9.16756C26.9565 8.86677 27.3917 8.56578 27.8249 8.23486C27.6528 8.32522 26.3195 9.31796 24.7825 8.59589C24.7825 8.59589 25.5935 9.28784 26.4916 9.16756Z" fill="#595961"/>
<path opacity="0.62" fill-rule="evenodd" clip-rule="evenodd" d="M28.2602 8.17476C28.7824 8.02416 29.275 7.84365 29.7676 7.66313C29.5935 7.72337 28.0288 8.26492 26.7529 7.12158C26.7529 7.12158 27.3621 8.02416 28.2602 8.17476Z" fill="#595961"/>
<path opacity="0.62" fill-rule="evenodd" clip-rule="evenodd" d="M29.738 7.63325C30.1455 7.69349 30.5511 7.72362 30.9566 7.75374C30.8122 7.72362 29.5658 7.63326 29.0139 6.42969C29.0436 6.42969 29.188 7.2421 29.738 7.63325Z" fill="#595961"/>
<path opacity="0.62" fill-rule="evenodd" clip-rule="evenodd" d="M31.3046 8.29473C31.5657 8.62564 31.8249 8.95656 32.086 9.25755C31.999 9.13708 31.1879 8.14434 31.5934 6.91064C31.6231 6.91064 31.1879 7.60278 31.3046 8.29473Z" fill="#595961"/>
<path fill-rule="evenodd" clip-rule="evenodd" d="M33.3043 17.1707C33.332 16.8398 34.3192 9.22764 31.5656 6.91085C31.0434 6.45966 30.4064 6.24902 29.7101 6.24902C29.1879 6.24902 28.6083 6.3693 27.999 6.61005C25.3325 7.60299 23.1011 10.2808 21.5363 14.3727C20.3475 17.4416 19.9716 20.1797 19.9419 20.3C19.9419 20.3901 19.9994 20.4805 20.0864 20.4805H20.116C20.203 20.4805 20.2604 20.4202 20.2604 20.3301C20.2901 20.2096 21.8548 9.22764 28.086 6.88073C29.4192 6.3693 30.5507 6.45966 31.3618 7.1516C33.9987 9.34792 33.0136 17.0204 32.9859 17.1107C32.9859 17.2009 33.0433 17.2912 33.1303 17.2912C33.1303 17.2912 33.1303 17.2912 33.158 17.2912C33.245 17.3213 33.3043 17.2611 33.3043 17.1707Z" fill="url(#paint22_linear_20575_68117)"/>
<path fill-rule="evenodd" clip-rule="evenodd" d="M34.4637 13.4098C34.347 10.1603 33.623 7.96378 32.2897 6.82045C31.5657 6.21886 30.6954 5.94798 29.7103 6.00822C30.464 6.06826 31.1583 6.33914 31.7399 6.82045C33.0732 7.93386 33.7971 10.1603 33.9118 13.4098C33.9989 15.6964 33.7398 17.6821 33.7398 17.7725C33.6805 18.1335 33.449 18.4044 33.1582 18.4945C33.2176 18.5247 33.2452 18.5247 33.3045 18.5247C33.7674 18.5849 34.2027 18.2538 34.2601 17.7725C34.2897 17.6821 34.5508 15.7266 34.4637 13.4098Z" fill="url(#paint23_linear_20575_68117)"/>
<path fill-rule="evenodd" clip-rule="evenodd" d="M28.0586 8.08427C22.233 10.2806 20.696 20.8415 20.696 20.9618C20.6386 21.3228 20.4051 21.5937 20.1163 21.6838C20.1737 21.7139 20.2034 21.7139 20.2607 21.7139C20.2904 21.7139 20.3478 21.7139 20.3775 21.7139C20.8127 21.7139 21.1588 21.383 21.2182 20.9618C21.2459 20.8415 22.7532 10.3107 28.5789 8.11419C28.9864 7.9638 29.3326 7.87364 29.6531 7.84352C29.2179 7.78328 28.6659 7.87363 28.0586 8.08427Z" fill="url(#paint24_linear_20575_68117)"/>
<defs>
<linearGradient id="paint0_linear_20575_68117" x1="27.2217" y1="7.88139" x2="26.3127" y2="20.2577" gradientUnits="userSpaceOnUse">
<stop stop-color="white" stop-opacity="0.65"/>
<stop offset="1" stop-color="white" stop-opacity="0.01"/>
</linearGradient>
<linearGradient id="paint1_linear_20575_68117" x1="33.8645" y1="14.9657" x2="40.2645" y2="20.5713" gradientUnits="userSpaceOnUse">
<stop stop-opacity="0.01"/>
<stop offset="1" stop-opacity="0.4"/>
</linearGradient>
<linearGradient id="paint2_linear_20575_68117" x1="31.2986" y1="21.4503" x2="38.0728" y2="15.1406" gradientUnits="userSpaceOnUse">
<stop stop-opacity="0.01"/>
<stop offset="1" stop-opacity="0.4"/>
</linearGradient>
<linearGradient id="paint3_linear_20575_68117" x1="22.676" y1="3.03678" x2="-3.63563" y2="33.3536" gradientUnits="userSpaceOnUse">
<stop stop-color="#B8D26E"/>
<stop offset="1" stop-color="#7FB525"/>
</linearGradient>
<linearGradient id="paint4_linear_20575_68117" x1="58.6685" y1="10.6268" x2="44.2281" y2="10.895" gradientUnits="userSpaceOnUse">
<stop stop-color="#B4E034"/>
<stop offset="1" stop-color="#60A927"/>
</linearGradient>
<linearGradient id="paint5_linear_20575_68117" x1="15.7167" y1="30.842" x2="3.87755" y2="59.6728" gradientUnits="userSpaceOnUse">
<stop stop-color="white"/>
<stop offset="1" stop-color="#CECEEB"/>
</linearGradient>
<linearGradient id="paint6_linear_20575_68117" x1="32.6914" y1="101.843" x2="51.4422" y2="101.805" gradientUnits="userSpaceOnUse">
<stop stop-color="#1D1D1B" stop-opacity="0.5"/>
<stop offset="0.038033" stop-color="#1D1D1B" stop-opacity="0.4837"/>
<stop offset="0.4243" stop-color="#1D1D1B" stop-opacity="0.3185"/>
<stop offset="1" stop-color="#1D1D1B" stop-opacity="0.01"/>
</linearGradient>
<linearGradient id="paint7_linear_20575_68117" x1="34.8693" y1="11.6013" x2="31.7585" y2="13.2755" gradientUnits="userSpaceOnUse">
<stop stop-opacity="0.01"/>
<stop offset="1" stop-opacity="0.4"/>
</linearGradient>
<linearGradient id="paint8_linear_20575_68117" x1="21.8274" y1="16.5668" x2="19.6407" y2="18.446" gradientUnits="userSpaceOnUse">
<stop stop-opacity="0.01"/>
<stop offset="1" stop-opacity="0.4"/>
</linearGradient>
<linearGradient id="paint9_linear_20575_68117" x1="43.1578" y1="54.5319" x2="43.3792" y2="57.4502" gradientUnits="userSpaceOnUse">
<stop stop-opacity="0.01"/>
<stop offset="1" stop-opacity="0.4"/>
</linearGradient>
<linearGradient id="paint10_linear_20575_68117" x1="37.9889" y1="50.2595" x2="38.5022" y2="57.8471" gradientUnits="userSpaceOnUse">
<stop stop-color="white" stop-opacity="0.5"/>
<stop offset="0.0896271" stop-color="white" stop-opacity="0.4552"/>
<stop offset="1" stop-color="white" stop-opacity="0.01"/>
</linearGradient>
<linearGradient id="paint11_linear_20575_68117" x1="37.0018" y1="51.4397" x2="37.9148" y2="59.5448" gradientUnits="userSpaceOnUse">
<stop stop-opacity="0.01"/>
<stop offset="1" stop-opacity="0.4"/>
</linearGradient>
<linearGradient id="paint12_linear_20575_68117" x1="33.4193" y1="4.80774" x2="10.0035" y2="18.3505" gradientUnits="userSpaceOnUse">
<stop stop-color="white" stop-opacity="0.5"/>
<stop offset="1" stop-color="white" stop-opacity="0.01"/>
</linearGradient>
<linearGradient id="paint13_linear_20575_68117" x1="37.9372" y1="75.5869" x2="58.6049" y2="75.6287" gradientUnits="userSpaceOnUse">
<stop stop-color="#1D1D1B" stop-opacity="0.5"/>
<stop offset="0.0896271" stop-color="#1D1D1B" stop-opacity="0.4552"/>
<stop offset="1" stop-color="#1D1D1B" stop-opacity="0.01"/>
</linearGradient>
<linearGradient id="paint14_linear_20575_68117" x1="52.738" y1="14.3461" x2="49.802" y2="15.0655" gradientUnits="userSpaceOnUse">
<stop stop-color="white" stop-opacity="0.4"/>
<stop offset="1" stop-color="white" stop-opacity="0.01"/>
</linearGradient>
<linearGradient id="paint15_linear_20575_68117" x1="26.3969" y1="58.3041" x2="27.9236" y2="50.9439" gradientUnits="userSpaceOnUse">
<stop stop-color="#1D1D1B" stop-opacity="0.5"/>
<stop offset="0.0896271" stop-color="#1D1D1B" stop-opacity="0.4552"/>
<stop offset="1" stop-color="#1D1D1B" stop-opacity="0.01"/>
</linearGradient>
<linearGradient id="paint16_linear_20575_68117" x1="35.2234" y1="100.906" x2="54.0416" y2="100.923" gradientUnits="userSpaceOnUse">
<stop stop-color="#1D1D1B" stop-opacity="0.5"/>
<stop offset="1" stop-color="#1D1D1B" stop-opacity="0.01"/>
</linearGradient>
<linearGradient id="paint17_linear_20575_68117" x1="18.0274" y1="9.61552" x2="8.90064" y2="44.6803" gradientUnits="userSpaceOnUse">
<stop stop-color="white" stop-opacity="0.5"/>
<stop offset="1" stop-color="white" stop-opacity="0.01"/>
</linearGradient>
<linearGradient id="paint18_linear_20575_68117" x1="18.0274" y1="9.61552" x2="8.90064" y2="44.6803" gradientUnits="userSpaceOnUse">
<stop stop-color="white" stop-opacity="0.5"/>
<stop offset="1" stop-color="white" stop-opacity="0.01"/>
</linearGradient>
<linearGradient id="paint19_linear_20575_68117" x1="40.1768" y1="46.3724" x2="32.963" y2="56.3013" gradientUnits="userSpaceOnUse">
<stop stop-color="white" stop-opacity="0.5"/>
<stop offset="0.0896271" stop-color="white" stop-opacity="0.4552"/>
<stop offset="1" stop-color="white" stop-opacity="0.01"/>
</linearGradient>
<linearGradient id="paint20_linear_20575_68117" x1="42.3527" y1="48.6551" x2="41.6384" y2="50.2562" gradientUnits="userSpaceOnUse">
<stop stop-opacity="0.01"/>
<stop offset="1" stop-opacity="0.4"/>
</linearGradient>
<linearGradient id="paint21_linear_20575_68117" x1="49.4363" y1="50.7719" x2="49.4011" y2="51.2023" gradientUnits="userSpaceOnUse">
<stop stop-opacity="0.01"/>
<stop offset="1" stop-opacity="0.4"/>
</linearGradient>
<linearGradient id="paint22_linear_20575_68117" x1="23.4591" y1="5.2362" x2="20.3405" y2="17.5562" gradientUnits="userSpaceOnUse">
<stop stop-color="white" stop-opacity="0.65"/>
<stop offset="1" stop-color="white" stop-opacity="0.01"/>
</linearGradient>
<linearGradient id="paint23_linear_20575_68117" x1="30.4383" y1="12.343" x2="35.8632" y2="17.8584" gradientUnits="userSpaceOnUse">
<stop stop-opacity="0.01"/>
<stop offset="1" stop-opacity="0.4"/>
</linearGradient>
<linearGradient id="paint24_linear_20575_68117" x1="26.9707" y1="20.4651" x2="34.4661" y2="12.7673" gradientUnits="userSpaceOnUse">
<stop stop-opacity="0.01"/>
<stop offset="1" stop-opacity="0.4"/>
</linearGradient>
</defs>
</svg>
