<svg width="64" height="64" viewBox="0 0 64 64" fill="none" xmlns="http://www.w3.org/2000/svg">
<path fill-rule="evenodd" clip-rule="evenodd" d="M60 32.04C60 28.0578 58.0713 24.9157 54.3843 24.9157C50.6978 24.9157 48.4427 28.0573 48.4427 32.0092C48.4427 36.6908 51.087 39.0557 54.8827 39.0557C56.7335 39.0557 58.1335 38.6357 59.1913 38.0443V34.9335C58.1329 35.4622 56.92 35.7886 55.38 35.7886C53.84 35.7886 52.5335 35.26 52.3621 33.4243H59.9692C59.9692 33.2227 60 32.4135 60 32.04ZM52.3156 30.5622C52.3156 28.8043 53.3892 28.0735 54.3692 28.0735C55.3492 28.0735 56.3292 28.8043 56.3292 30.5622H52.3156ZM42.4378 24.9157C40.9135 24.9157 39.9335 25.6314 39.3886 26.1286L39.187 25.1643H35.7643V43.3027L39.6535 42.4778L39.6686 38.0757C40.2286 38.48 41.0535 39.0557 42.4221 39.0557C45.2065 39.0557 47.7421 36.8157 47.7421 31.8843C47.7265 27.3735 45.16 24.9157 42.4378 24.9157ZM41.5043 35.6335C40.5865 35.6335 40.0427 35.3065 39.6686 34.9022L39.6535 29.1314C40.0578 28.68 40.6178 28.3692 41.5043 28.3692C42.92 28.3692 43.9 29.9557 43.9 31.9935C43.9 34.0314 42.9357 35.6335 41.5043 35.6335ZM30.4135 23.9978L34.3178 23.1578V20L30.413 20.8243L30.4135 23.9978Z" fill="#635BFF"/>
<path d="M34.3178 25.1802H30.413V38.7915H34.3178V25.1802Z" fill="#635BFF"/>
<path fill-rule="evenodd" clip-rule="evenodd" d="M26.2286 26.3312L25.98 25.1799H22.62V38.7912H26.5086V29.5664C27.427 28.3685 28.9821 28.5864 29.4643 28.7577V25.1799C28.9664 24.9934 27.1464 24.6512 26.2286 26.3312ZM18.4513 21.8042L14.6557 22.6134L14.64 35.0734C14.64 37.375 16.3665 39.0712 18.6692 39.0712C19.9443 39.0712 20.8778 38.8377 21.3908 38.5577V35.3993C20.8935 35.602 18.4357 36.3177 18.4357 34.0156V28.4934H21.3913V25.1799H18.4357L18.4513 21.8042ZM7.93567 29.1312C7.93567 28.5242 8.43351 28.2912 9.25727 28.2912C10.44 28.2912 11.9335 28.6491 13.1157 29.2864V25.6312C11.8243 25.1177 10.5486 24.9156 9.25727 24.9156C6.1 24.9156 4 26.5642 4 29.3172C4 33.6112 9.91135 32.9264 9.91135 34.7772C9.91135 35.4934 9.28863 35.7264 8.41783 35.7264C7.12648 35.7264 5.47784 35.1977 4.17136 34.482V38.1842C5.51235 38.7638 6.95694 39.0656 8.41783 39.0712C11.6535 39.0712 13.8778 37.4691 13.8778 34.6842C13.8621 30.0485 7.93567 30.8734 7.93567 29.1312Z" fill="#635BFF"/>
</svg>
