<svg width="64" height="64" viewBox="0 0 64 64" fill="none" xmlns="http://www.w3.org/2000/svg">
<mask id="mask0_20575_68109" style="mask-type:luminance" maskUnits="userSpaceOnUse" x="4" y="4" width="56" height="56">
<path d="M4 4H60V60H4V4Z" fill="white"/>
</mask>
<g mask="url(#mask0_20575_68109)">
<path d="M32 15.2002C24.5333 15.2002 19.8667 18.9324 18 26.3968C20.8 22.6646 24.0667 21.265 27.8 22.198C29.9302 22.73 31.4523 24.2756 33.1379 25.9858C35.883 28.7712 39.0605 31.9952 46.0006 31.9952C53.4672 31.9952 58.1337 28.2628 60 20.798C57.2 24.5302 53.9333 25.9302 50.2 24.998C48.0703 24.4654 46.5482 22.9204 44.8626 21.2096C42.1175 18.4247 38.9395 15.2002 32 15.2002ZM18 31.9952C10.5333 31.9952 5.86667 35.7276 4 43.1924C6.8 39.4598 10.0667 38.0601 13.8 38.9935C15.9297 39.5266 17.4523 41.0711 19.1379 42.7808C21.8825 45.5662 25.0605 48.7912 32 48.7912C39.4667 48.7912 44.1333 45.0588 46 37.594C43.2 41.3262 39.9333 42.7259 36.2 41.7929C34.0703 41.2609 32.5477 39.7153 30.8621 38.0056C28.117 35.2202 24.9401 31.9952 18 31.9952Z" fill="#06B6D4"/>
</g>
</svg>
